<svg width="58" height="44" viewBox="0 0 58 44" fill="none" xmlns="http://www.w3.org/2000/svg">
<path d="M26.9284 32.1518V16.9781L16.9524 14.2536V32.1518H15.611V8.72064L2.03022 5.99609V32.1518H0.688899H2.02896H0.226562V33.9542L28.7308 33.9961V32.1518H26.9284ZM22.8625 19.3254H24.6649V21.6727H22.8625V19.3254ZM22.8625 23.4751H24.6649V25.8224H22.8625V23.4751ZM22.8625 27.6248H24.6649V29.9721H22.8625V27.6248ZM19.2159 19.3254H21.0182V21.6727H19.2159V19.3254ZM19.2159 23.4751H21.0182V25.8224H19.2159V23.4751ZM19.2159 27.6248H21.0182V29.9721H19.2159V27.6248ZM11.5452 10.9841H13.3476V13.3314H11.5452V10.9841ZM11.5452 15.1338H13.3476V17.4811H11.5452V15.1338ZM11.5452 19.3254H13.3476V21.6727H11.5452V19.3254ZM11.5452 23.4751H13.3476V25.8224H11.5452V23.4751ZM7.89848 10.9841H9.70086V13.3314H7.89848V10.9841ZM7.89848 15.1338H9.70086V17.4811H7.89848V15.1338ZM7.89848 19.3254H9.70086V21.6727H7.89848V19.3254ZM7.89848 23.4751H9.70086V25.8224H7.89848V23.4751ZM4.29369 10.9841H6.09609V13.3314H4.29369V10.9841ZM4.29369 15.1338H6.09609V17.4811H4.29369V15.1338ZM4.29369 19.3254H6.09609V21.6727H4.29369V19.3254ZM4.29369 23.4751H6.09609V25.8224H4.29369V23.4751ZM7.10207 27.6248H10.5392V32.1518H7.10207V27.6248Z" fill="#6393A7"/>
<path d="M22.6467 12.4151C23.905 12.4151 24.9536 11.3666 24.9536 10.1083C24.9536 9.74128 24.8487 9.42671 24.7438 9.11214L29.1478 5.547C29.6721 6.281 30.511 6.75285 31.5071 6.75285C32.1887 6.75285 32.8703 6.49071 33.3421 6.07128L37.5538 14.9487C37.1344 15.3682 36.8198 15.9449 36.8198 16.574C36.8198 17.8323 37.8684 18.8809 39.1267 18.8809C40.385 18.8809 41.4335 17.8323 41.4335 16.574C41.4335 16.3119 41.3811 16.0497 41.2762 15.84L46.0472 10.3002C46.4667 10.6672 46.991 10.8769 47.5677 10.8769C48.2492 10.8769 48.8784 10.5623 49.2978 10.0904L52.7581 11.873C52.7057 12.0303 52.6532 12.24 52.6532 12.4497C52.6532 13.708 53.7018 14.7566 54.9601 14.7566C56.2184 14.7566 57.2669 13.708 57.2669 12.4497C57.2669 11.1914 56.2184 10.1429 54.9601 10.1429C54.2785 10.1429 53.6494 10.4574 53.2299 10.9293L49.7697 9.14672C49.8221 8.98944 49.8745 8.77973 49.8745 8.57001C49.8745 7.31173 48.826 6.26316 47.5677 6.26316C46.3094 6.26316 45.2608 7.31173 45.2608 8.57001C45.2608 8.83215 45.3132 9.0943 45.4181 9.30401L40.6471 14.8439C40.2277 14.4769 39.7034 14.2672 39.1267 14.2672C38.917 14.2672 38.7073 14.3196 38.4975 14.372L34.1285 5.02271C34.2858 4.65571 34.3907 4.23628 34.3907 3.81686C34.3907 2.19157 33.08 0.880859 31.4547 0.880859C29.8294 0.880859 28.5187 2.19157 28.5187 3.81686C28.5187 4.079 28.5711 4.34114 28.6235 4.60328L24.0623 8.32571C23.6953 8.01114 23.171 7.85385 22.6467 7.85385C21.3884 7.85385 20.3398 8.90242 20.3398 10.1607C20.3923 11.3666 21.3884 12.4151 22.6467 12.4151ZM54.9601 11.2439C55.6417 11.2439 56.2184 11.8206 56.2184 12.5022C56.2184 13.1837 55.6417 13.7604 54.9601 13.7604C54.2785 13.7604 53.7018 13.1837 53.7018 12.5022C53.7018 11.8206 54.2785 11.2439 54.9601 11.2439ZM47.6201 7.36415C48.3017 7.36415 48.8784 7.94087 48.8784 8.62244C48.8784 9.30401 48.3017 9.88072 47.6201 9.88072C46.9385 9.88072 46.3618 9.30401 46.3618 8.62244C46.3618 7.94087 46.8861 7.36415 47.6201 7.36415ZM40.385 16.574C40.385 17.2556 39.8083 17.8323 39.1267 17.8323C38.4451 17.8323 37.8684 17.2556 37.8684 16.574C37.8684 15.8924 38.4451 15.3157 39.1267 15.3157C39.8083 15.3157 40.385 15.8924 40.385 16.574ZM31.5071 2.19157C32.3984 2.19157 33.08 2.92557 33.08 3.76443C33.08 4.65571 32.346 5.33728 31.5071 5.33728C30.6158 5.33728 29.9343 4.60328 29.9343 3.76443C29.9343 2.92557 30.6158 2.19157 31.5071 2.19157ZM22.6467 8.84999C23.3283 8.84999 23.905 9.42671 23.905 10.1083C23.905 10.7898 23.3283 11.3666 22.6467 11.3666C21.9651 11.3666 21.4408 10.7898 21.4408 10.1083C21.4408 9.42671 21.9651 8.84999 22.6467 8.84999Z" fill="#6393A7"/>
<path d="M47.6017 36.3009C47.5368 36.177 47.4848 36.0215 47.4848 35.9541C47.4848 35.705 47.3619 35.4984 47.1202 35.3463C46.9845 35.2601 46.8562 35.1893 46.8354 35.1893C46.8146 35.1893 46.5114 35.0774 46.1607 34.9402C45.811 34.8015 45.4608 34.6756 45.3821 34.6568C45.3033 34.6405 45.1502 34.5107 45.0418 34.3685C44.9328 34.2278 44.7981 34.0986 44.7426 34.0797C44.4488 33.9807 44.38 33.5309 44.5851 33.0786C44.646 32.9429 44.698 32.7839 44.6985 32.7279C44.6985 32.671 44.7733 32.5303 44.8649 32.4149C45.1067 32.1093 45.2523 31.4475 45.0977 31.3529C45.066 31.3311 45.0418 31.0631 45.0418 30.7372C45.0418 30.2983 45.017 30.112 44.9412 29.9634C44.7921 29.6682 44.483 29.4512 44.1402 29.3963C43.9674 29.37 43.7895 29.2992 43.7137 29.2283C43.6137 29.1342 43.5146 29.106 43.2759 29.1075C42.6651 29.1085 42.0098 29.4631 41.67 29.9738C41.4302 30.3369 41.3564 30.7297 41.3673 31.5877C41.3737 32.0335 41.3945 32.135 41.503 32.2831C41.5734 32.3782 41.6303 32.4813 41.6303 32.5125C41.6303 32.5437 41.6794 32.615 41.7383 32.671C41.7973 32.727 41.8651 32.8879 41.8874 33.0291C41.9102 33.1698 41.9642 33.3347 42.0073 33.3972C42.0504 33.4571 42.086 33.6027 42.086 33.7171C42.086 33.9009 42.0623 33.9346 41.9102 33.9891C41.8126 34.0228 41.6402 34.1501 41.5258 34.2739C41.2861 34.5325 40.8011 34.7108 39.7 34.9397C39.3418 35.0135 39.0194 35.1061 38.9842 35.1457C38.8995 35.2379 38.7573 35.6926 38.6806 36.1166C38.6489 36.2984 38.6077 36.4673 38.5904 36.4945C38.5453 36.5683 38.2773 37.9548 38.2773 38.1168V38.259H43.1154H47.9529L47.9222 38.0172C47.7756 36.8819 47.7067 36.4995 47.6017 36.3009Z" fill="#6393A7"/>
<circle cx="43.1182" cy="33.6826" r="8.583" stroke="#6393A7" stroke-width="1.5"/>
</svg>
