<svg width="29" height="25" viewBox="0 0 29 25" fill="none" xmlns="http://www.w3.org/2000/svg">
<path d="M28.3982 4.26009H21.0259V3.84903C21.0259 1.71898 19.2957 0 17.1518 0H11.8483C9.70428 0 7.97406 1.71898 7.97406 3.84903V4.26009H0.601816C0.263295 4.26009 0 4.52167 0 4.858V24.4021C0 24.7384 0.263295 25 0.601816 25H28.3982C28.7367 25 29 24.7384 29 24.4021V4.858C29 4.52167 28.7367 4.26009 28.3982 4.26009ZM9.17769 3.8864C9.17769 2.429 10.3813 1.23318 11.8483 1.23318H17.1894C18.6563 1.23318 19.8599 2.429 19.8599 3.8864V4.29746H9.17769V3.8864ZM8.57588 5.4559H20.4617H27.834V9.86547H17.9792H11.0584H1.20363V5.4559H8.57588ZM11.6602 11.0613H17.415V13.3034H11.6602V11.0613ZM1.20363 23.8416V11.0613H10.4566V13.9013C10.4566 14.2377 10.7198 14.4993 11.0584 14.4993H17.9792C18.3178 14.4993 18.5811 14.2377 18.5811 13.9013V11.0613H27.834V23.8416H1.20363Z" fill="#2C909A"/>
</svg>
