<svg width="44" height="26" viewBox="0 0 44 26" fill="none" xmlns="http://www.w3.org/2000/svg">
<path d="M24.5009 14.4478C24.1379 17.2602 22.755 19.87 20.6303 21.7502L19.444 19.9933C21.0276 18.5198 22.058 16.5795 22.3865 14.4478H24.5009ZM25.8086 13.2314H21.281C21.1962 15.9181 19.8485 18.2812 17.8197 19.7595L20.3569 23.5168C23.588 21.2241 25.7207 17.4796 25.8086 13.2314ZM12.9067 1.25643C18.8021 1.25643 23.7638 5.74245 24.5017 11.4841H22.3873C21.6791 6.83873 17.7198 3.3505 12.9067 3.3505C8.66603 3.3505 4.98411 6.12283 3.74827 10.0907L1.65471 9.77602C3.05601 4.7727 7.60686 1.25643 12.9067 1.25643ZM12.9067 0.0400391C6.5221 0.0400391 1.22225 4.68621 0.185455 10.7874L4.66116 11.4593C5.3726 7.54102 8.78993 4.5685 12.9059 4.5685C17.448 4.5685 21.1379 8.18726 21.2802 12.7021H25.8078C25.6639 5.6848 19.946 0.0400391 12.9067 0.0400391ZM1.21745 12.7157L3.30542 13.0296C3.33739 18.3068 7.63244 22.5902 12.9075 22.5902C14.324 22.5902 15.7165 22.2747 16.9915 21.6717L18.1762 23.4271C16.5471 24.2527 14.7485 24.6843 12.9067 24.6843C6.45975 24.6843 1.21425 19.4295 1.21425 12.9704C1.21425 12.8863 1.21505 12.8014 1.21745 12.7157ZM0.107916 11.3191C0.0391696 11.8605 0 12.4106 0 12.9704C0 20.1118 5.77868 25.9007 12.9075 25.9007C15.4911 25.9007 17.8956 25.1367 19.914 23.8275L17.3792 20.0726C16.085 20.8918 14.5542 21.373 12.9083 21.373C8.27673 21.373 4.52047 17.6101 4.52047 12.9704C4.52047 12.6388 4.54445 12.3129 4.58202 11.991L0.107916 11.3191ZM43.3917 2.14648H31.246C30.911 2.14648 30.6392 1.87421 30.6392 1.53788C30.6392 1.20155 30.911 0.929282 31.246 0.929282H43.3917C43.7274 0.929282 43.9992 1.20155 43.9992 1.53788C43.9992 1.87421 43.7274 2.14648 43.3917 2.14648ZM43.3917 8.00425H31.246C30.911 8.00425 30.6392 7.73198 30.6392 7.39565C30.6392 7.06012 30.911 6.78785 31.246 6.78785H43.3917C43.7274 6.78785 43.9992 7.06012 43.9992 7.39565C43.9992 7.73198 43.7274 8.00425 43.3917 8.00425ZM43.3917 5.07577H31.246C30.911 5.07577 30.6392 4.8035 30.6392 4.46716C30.6392 4.13163 30.911 3.85857 31.246 3.85857H43.3917C43.7274 3.85857 43.9992 4.13083 43.9992 4.46716C43.9992 4.8035 43.7274 5.07577 43.3917 5.07577ZM42.8169 24H31.8207C31.17 24 30.6392 23.4691 30.6392 22.8156V11.2763C30.6392 10.6244 31.1692 10.0927 31.8207 10.0927H42.8177C43.4692 10.0927 44 10.6236 44 11.2763V22.8156C43.9992 23.4691 43.4692 24 42.8169 24ZM42.785 11.2763L31.8199 11.3099L31.8519 22.8156L42.785 22.7836V11.2763ZM41.996 13.7091C41.996 14.2208 41.5827 14.634 41.0727 14.634C41.0367 14.634 41.0055 14.6172 40.972 14.614L39.8648 17.2782C40.0631 17.4471 40.1942 17.6906 40.1942 17.9709C40.1942 18.4818 39.7809 18.8958 39.2709 18.8958C38.7609 18.8958 38.3476 18.481 38.3476 17.9709C38.3476 17.8724 38.3756 17.7843 38.4028 17.6954L36.1893 16.2572C36.027 16.3997 35.8216 16.4926 35.5898 16.4926C35.5522 16.4926 35.5202 16.4758 35.4843 16.4702L34.1373 19.6757C34.3467 19.8447 34.4882 20.0938 34.4882 20.3844C34.4882 20.8953 34.075 21.3085 33.565 21.3085C33.055 21.3085 32.6425 20.8945 32.6425 20.3844C32.6425 19.8727 33.055 19.4595 33.565 19.4595C33.6025 19.4595 33.6337 19.4763 33.6705 19.4795L35.0182 16.2772C34.8088 16.1058 34.6673 15.8584 34.6673 15.5677C34.6673 15.0568 35.0806 14.6436 35.5898 14.6436C36.1006 14.6436 36.5131 15.0576 36.5131 15.5677C36.5131 15.6606 36.4859 15.7455 36.4595 15.8304L38.6834 17.2726C38.844 17.1372 39.0439 17.0468 39.2701 17.0468C39.3173 17.0468 39.3564 17.066 39.4012 17.0732L40.5043 14.421C40.2925 14.2512 40.1502 14.0022 40.1502 13.7091C40.1502 13.1982 40.5635 12.785 41.0719 12.785C41.5827 12.785 41.996 13.1982 41.996 13.7091Z" fill="#2C909A"/>
</svg>
