<svg width="32" height="29" viewBox="0 0 32 29" fill="none" xmlns="http://www.w3.org/2000/svg">
<path d="M5.77199 10.5818C6.2328 11.8231 6.96367 13.0298 7.86705 13.9106C8.37744 14.4107 8.94413 14.8061 9.54731 15.046C9.96252 15.2094 10.3964 15.3022 10.8429 15.3022C11.2867 15.3022 11.7205 15.2113 12.1357 15.046C12.7607 14.7969 13.346 14.3825 13.8703 13.8591C14.7519 12.9795 15.4653 11.7914 15.9158 10.5719C16.2648 10.47 16.6288 9.81803 16.7779 8.98524C16.9381 8.08186 16.787 7.29388 16.4381 7.16381C16.4512 6.94292 16.4595 6.71926 16.4583 6.49202C16.45 3.21717 14.5302 1.05509 11.5036 0.85244C8.86482 0.675175 6.87603 1.7237 5.97067 3.46582C5.66491 4.05234 5.49241 5.04495 5.4246 5.84165C5.32307 6.25646 5.26359 6.68793 5.26359 7.13446H5.2743C5.2743 7.13843 5.2739 7.1416 5.27271 7.14438C5.26557 7.14477 5.26081 7.14596 5.25367 7.14715C4.86821 7.21378 4.69174 8.03745 4.86147 8.98643C5.01613 9.85729 5.40794 10.5311 5.77199 10.5818ZM5.85804 8.14254C5.89492 8.0311 5.94569 7.94465 6.01072 7.89865C6.03848 7.87961 6.06862 7.86534 6.09916 7.86018C6.17133 7.84789 6.24628 7.87604 6.32004 7.93474H6.32044C6.32044 7.92918 6.32123 7.92324 6.32163 7.91808C6.33591 7.78007 6.44576 7.03889 6.90815 6.45078C7.26625 5.99433 7.83929 5.63028 8.74466 5.71356C8.74466 5.71356 10.5593 6.38217 12.2095 5.79089C12.3867 5.78732 12.5604 5.78574 12.7195 5.79129C13.4027 5.81667 13.8707 6.1712 14.3616 6.39923C14.3446 6.17437 14.1709 5.94436 14.1796 5.79089C14.2577 5.8131 14.3287 5.84681 14.3973 5.88329C14.7507 6.25964 15.0925 6.89057 15.3634 7.92086C15.3634 7.92561 15.3634 7.92918 15.3634 7.93315C15.3657 7.93275 15.3657 7.93275 15.3673 7.93236C15.3673 7.93275 15.3673 7.93275 15.3673 7.93315L15.3721 7.92839C15.4074 7.90063 15.4439 7.88001 15.4796 7.86851C15.499 7.86137 15.5176 7.86375 15.5371 7.86216C15.5529 7.86137 15.5712 7.85503 15.5858 7.8582H15.587C15.6041 7.86058 15.6223 7.86732 15.6382 7.87406C15.8067 7.95337 15.9035 8.27023 15.8952 8.67711C15.8928 8.81155 15.8793 8.95709 15.8519 9.10778C15.8452 9.14784 15.8353 9.18234 15.8258 9.2208C15.7365 9.62887 15.5735 9.96318 15.3999 10.1111C15.3606 10.1448 15.3182 10.1686 15.2789 10.1817C15.2412 10.194 15.2047 10.1995 15.1683 10.1928C15.1278 10.186 15.0897 10.165 15.0552 10.1333C14.6365 11.4352 13.839 12.7308 12.8329 13.52C12.6838 13.635 12.5307 13.7409 12.374 13.8329C11.8962 14.114 11.3814 14.2794 10.8457 14.2794C10.1481 14.2794 9.48624 14.003 8.89614 13.5513C7.87141 12.7665 7.05766 11.4527 6.63413 10.1333C6.59962 10.165 6.56076 10.1857 6.51991 10.1928C6.43346 10.2079 6.34146 10.1638 6.25382 10.0774C6.07497 9.89893 5.91396 9.54004 5.83663 9.10818C5.83147 9.08002 5.8279 9.05266 5.82473 9.0245C5.82433 8.7243 5.83821 8.43163 5.85804 8.14254Z" fill="#6F89BF"/>
<path fill-rule="evenodd" clip-rule="evenodd" d="M18 15.7821C17.9192 15.7635 17.8478 15.7497 17.7878 15.7382C17.7343 15.7286 17.6906 15.7199 17.6545 15.712C17.1731 15.5994 16.6203 15.5664 16.1325 15.5383C16.1121 15.5371 16.0918 15.5359 16.0715 15.5347C15.7016 15.5127 15.3501 15.4919 15.0614 15.4336C14.7069 16.3715 12.9651 17.0532 10.8201 17.0532C8.67388 17.0532 6.93296 16.3715 6.57922 15.4336C6.27618 15.4939 5.90744 15.5155 5.52107 15.5382L5.50611 15.5391C5.01872 15.566 4.46631 15.599 3.98527 15.712C3.94918 15.7203 3.90477 15.7286 3.85163 15.7382L3.84921 15.7386C3.4407 15.8178 2.51657 15.9968 1.60428 17.0615C1.05384 17.7043 0.507773 18.6692 0.0826526 20.1313C-0.0236275 20.4966 -0.0240248 20.8808 0.0620303 21.2385C0.102084 21.4019 0.154034 21.5629 0.231762 21.7117C1.17401 23.4954 6.31312 24.1319 10.8066 24.1319H10.832C12.413 24.1319 14.0734 24.0532 15.6029 23.8735C15.5122 23.3458 15.4649 22.8033 15.4649 22.2498C15.4649 19.7525 16.4267 17.4799 18 15.7821Z" fill="#6F89BF"/>
<path d="M24.5413 28.0827C28.1542 28.0827 31.0827 25.1541 31.0827 21.5413C31.0827 17.9286 28.1542 15 24.5413 15C20.9285 15 18 17.9286 18 21.5413C18 25.1541 20.9285 28.0827 24.5413 28.0827ZM24.9048 17.2895C25.507 17.2895 25.995 17.7776 25.995 18.3797C25.995 18.9818 25.507 19.4699 24.9048 19.4699C24.3025 19.4699 23.8145 18.9818 23.8145 18.3797C23.8145 17.7776 24.3025 17.2895 24.9048 17.2895ZM24.5413 19.9787C25.6316 19.9787 25.896 20.6219 25.7739 21.4155L25.2682 24.703C25.2682 24.703 25.6316 24.703 26.3584 24.3396C26.3584 24.3396 25.995 25.7932 24.5413 25.7932C23.4511 25.7932 23.1867 25.15 23.3088 24.3565L23.8145 21.0689C23.8145 21.0689 23.4511 21.0689 22.7243 21.4323C22.7243 21.4323 23.0877 19.9787 24.5413 19.9787Z" fill="#6F89BF"/>
</svg>
