<svg width="25" height="30" viewBox="0 0 25 30" fill="none" xmlns="http://www.w3.org/2000/svg">
<path d="M24.0356 5.68987V24.8703C24.0356 25.2373 23.6655 25.5127 23.2955 25.5127H5.07054C4.70049 25.5127 4.33044 25.2373 4.33044 24.8703V0.642405C4.33044 0.275316 4.70049 0 5.07054 0H17.4672L24.0356 5.68987ZM18.3174 27.7057H19.7051V29.2658C19.7051 29.6329 19.4276 30 18.965 30H0.740098C0.370049 30 0 29.6329 0 29.2658V5.03797C0 4.67089 0.370049 4.39557 0.740098 4.39557H2.40532V5.77215H1.38768V28.6234H18.3174V27.7057ZM9.14108 20.2816C8.77103 20.2816 8.77103 18.731 9.14108 18.731H19.2249C19.595 18.731 19.595 20.2816 19.2249 20.2816H9.14108ZM9.14108 16.1519C8.77103 16.1519 8.77103 14.6013 9.14108 14.6013H19.2249C19.595 14.6013 19.595 16.1519 19.2249 16.1519H9.14108ZM9.14108 12.1139C8.77103 12.1139 8.77103 10.5633 9.14108 10.5633H19.2249C19.595 10.5633 19.595 12.1139 19.2249 12.1139H9.14108ZM22.6479 24.1361V6.33228H17.4672C17.0971 6.33228 16.7271 6.05696 16.7271 5.68987V1.37658H5.71813V24.1361H22.6479ZM21.4452 4.9557L18.1148 2.11076V4.9557H21.4452Z" fill="#4D90BF"/>
</svg>
