<svg width="47" height="47" viewBox="0 0 47 47" fill="none" xmlns="http://www.w3.org/2000/svg">
<path fill-rule="evenodd" clip-rule="evenodd" d="M46.3515 5.08763L46.3388 5.04964L46.3209 5.01383C46.2102 4.7925 46.0095 4.59179 45.7882 4.48112L45.6692 4.42164H41.7201V1.11085L41.7201 1.1066C41.7202 1.07727 41.7203 0.995287 41.7054 0.905935C41.6943 0.839359 41.6654 0.703725 41.5711 0.572709C41.456 0.37616 41.2724 0.201894 41.0718 0.101593C40.7787 -0.044949 40.4433 -0.0125866 40.1925 0.0710245L40.3706 0.605522L40.1178 0.102002L40.1151 0.103388L40.1107 0.10562L40.0997 0.111412L40.0692 0.128513C40.0465 0.141721 40.013 0.162448 39.9764 0.189889C39.9431 0.214884 39.8878 0.259731 39.8359 0.324628C39.8234 0.340243 39.8072 0.361865 39.7903 0.38911L34.3575 5.82191L34.3525 5.82687C34.3284 5.85084 34.2741 5.90483 34.2279 5.96649C34.2017 6.00141 34.1565 6.06621 34.1229 6.15557C34.0676 6.25883 34.0475 6.35547 34.0387 6.40842C34.0238 6.49778 34.0239 6.57976 34.024 6.60909L34.024 6.61334V10.5903L22.7528 21.8075C22.2262 21.5491 21.6403 21.3783 20.9996 21.3783C18.8356 21.3783 17.0673 23.1465 17.0673 25.3106C17.0673 27.4746 18.8356 29.2428 20.9996 29.2428C23.1637 29.2428 24.9319 27.4746 24.9319 25.3106C24.9319 24.637 24.7662 23.9514 24.4224 23.3584L35.663 12.1178H39.8653L39.8695 12.1178C39.8989 12.1178 39.9809 12.118 40.0702 12.1031C40.1438 12.0908 40.3016 12.0569 40.4444 11.9369C40.4863 11.9156 40.573 11.868 40.6567 11.7843L46.3209 6L46.4075 5.32001C46.395 5.23763 46.3753 5.15919 46.3515 5.08763ZM39.9134 11.5536C39.8965 11.5542 39.8812 11.5542 39.8686 11.5542H35.4329L39.8653 11.5543C39.8787 11.5543 39.8952 11.5543 39.9134 11.5536ZM21.1417 28.6765C21.0957 28.6783 21.0494 28.6793 21.0029 28.6793C19.15 28.6793 17.6341 27.1633 17.6341 25.3104C17.6341 23.5052 19.0732 22.0197 20.8608 21.9445C19.0716 22.018 17.6308 23.5042 17.6308 25.3106C17.6308 27.1635 19.1467 28.6794 20.9996 28.6794C21.0472 28.6794 21.0946 28.6784 21.1417 28.6765ZM22.8538 22.5019L34.5874 10.8244V6.61334C34.5874 6.55719 34.5874 6.4449 34.6435 6.38875C34.6435 6.3326 34.6997 6.27645 34.7558 6.22031L40.2583 0.717817C40.2583 0.66167 40.3706 0.605522 40.3706 0.605522C40.446 0.580394 40.5214 0.566512 40.5917 0.563875C40.5223 0.566817 40.4481 0.580648 40.3739 0.605383C40.3739 0.605383 40.2616 0.661531 40.2616 0.717678L34.7591 6.22017C34.703 6.27631 34.6468 6.33246 34.6468 6.38861C34.5907 6.44476 34.5907 6.55705 34.5907 6.6132V10.8243L22.8558 22.503L22.8538 22.5019ZM42.5914 6.67142L39.3533 9.86798H36.2738V7.01516L39.5265 3.76245V5.54653C39.5265 5.84301 39.6278 6.13385 39.8459 6.35199C40.064 6.57013 40.3549 6.67142 40.6514 6.67142H42.5914ZM39.5847 10.4313H39.5879L43.9674 6.10787H40.6547C40.3178 6.10787 40.0932 5.88328 40.0932 5.54639V2.40211L40.0899 2.40542V5.54653C40.0899 5.88342 40.3145 6.10801 40.6514 6.10801H43.9641L39.5847 10.4313ZM22.626 25.3106C22.626 26.2347 21.8676 26.9931 20.9435 26.9931C20.0194 26.9931 19.261 26.2347 19.261 25.3106C19.261 24.3907 20.0125 23.635 20.9308 23.6281L20.0398 24.5191C19.5951 24.9638 19.5951 25.6574 20.0398 26.102C20.2646 26.3269 20.5795 26.4355 20.8312 26.4355C21.0828 26.4355 21.3977 26.3269 21.6226 26.102L22.6163 25.1083C22.6227 25.1742 22.626 25.2418 22.626 25.3106ZM20.9435 23.0647C21.1162 23.0647 21.2781 23.0863 21.4339 23.125C21.6326 23.1742 21.8215 23.251 22.0103 23.3454L20.4381 24.9175C20.2136 25.1421 20.2136 25.479 20.4381 25.7036C20.5504 25.8159 20.7189 25.872 20.8312 25.872C20.837 25.872 20.8429 25.8719 20.849 25.8716C20.8441 25.8718 20.8392 25.8719 20.8345 25.8719C20.7222 25.8719 20.5537 25.8158 20.4414 25.7035C20.2169 25.4789 20.2169 25.142 20.4414 24.9174L22.0136 23.3453C21.6767 23.1768 21.3398 23.0645 20.9468 23.0645C20.9149 23.0645 20.8831 23.0652 20.8515 23.0665C20.882 23.0653 20.9127 23.0647 20.9435 23.0647ZM22.8538 24.0772C22.961 24.2386 23.0426 24.4257 23.0984 24.6262C23.1591 24.8438 23.1894 25.0772 23.1894 25.3106C23.1894 26.5139 22.2303 27.5041 21.0388 27.5545C22.2318 27.5058 23.1927 26.5149 23.1927 25.3104C23.1927 24.8612 23.0804 24.4121 22.8558 24.0752L22.8538 24.0772ZM36.0149 14.3715L36.0274 14.3924L36.0417 14.4121C38.3285 17.57 39.5281 21.3279 39.5281 25.3112C39.5281 35.612 31.1897 43.9503 20.8889 43.9503C10.5871 43.9503 2.19363 35.5548 2.19363 25.3112C2.19363 15.0126 10.586 6.67204 20.8889 6.67204C24.6519 6.67204 28.2463 7.76197 31.3512 9.88634L31.3506 9.88717L31.3794 9.90448C31.8826 10.2064 32.5846 10.1326 32.9385 9.54278C33.2376 9.04423 33.168 8.35057 32.593 7.9936C29.1302 5.63085 25.0927 4.42227 20.8889 4.42227C9.3482 4.42227 0 13.7705 0 25.3112C0 36.8519 9.3482 46.2001 20.8889 46.2001C32.4297 46.2001 41.7778 36.8519 41.7778 25.3112C41.7778 20.9235 40.3918 16.7113 37.8559 13.1379L37.8363 13.112C37.4698 12.6539 36.7976 12.4508 36.2723 12.8448C35.7816 13.2129 35.7217 13.8828 36.0149 14.3715ZM32.4554 9.25291C32.6238 8.97217 32.5677 8.63529 32.2869 8.46684C29.2797 6.41187 25.825 5.25172 22.2024 5.02636C25.8242 5.25206 29.2781 6.41215 32.2847 8.46671C32.5655 8.63515 32.6216 8.97204 32.4532 9.25278C32.3415 9.43885 32.1559 9.52627 31.9616 9.51501C32.1567 9.52706 32.3433 9.43969 32.4554 9.25291ZM20.8889 6.10863C21.3047 6.10863 21.7186 6.12157 22.1301 6.14737C21.7179 6.12148 21.3033 6.1085 20.8867 6.1085C10.2748 6.1085 1.62802 14.6991 1.62802 25.3111C1.62802 35.46 9.62115 43.8443 19.6689 44.4755C9.62218 43.8432 1.63022 35.4594 1.63022 25.3112C1.63022 14.6993 10.277 6.10863 20.8889 6.10863ZM36.93 13.2018C37.0932 13.2124 37.2629 13.2997 37.3942 13.4639C39.8647 16.945 41.2122 21.0438 41.2122 25.3111C41.2122 36.5406 32.1163 45.6366 20.8867 45.6366C20.5914 45.6366 20.2976 45.6303 20.0054 45.6179C20.2983 45.6304 20.5929 45.6367 20.8889 45.6367C32.1185 45.6367 41.2144 36.5408 41.2144 25.3112C41.2144 21.044 39.8669 16.9452 37.3964 13.464C37.2645 13.2991 37.0939 13.2117 36.93 13.2018ZM25.3372 14.683C25.5679 14.6973 25.7969 14.5714 25.8857 14.3051C25.998 14.0244 25.8857 13.6875 25.5488 13.5752C24.2989 13.066 23.0109 12.7858 21.6847 12.7031C23.0102 12.786 24.2974 13.0662 25.5466 13.5751C25.8835 13.6874 25.9958 14.0243 25.8835 14.305C25.795 14.5704 25.5672 14.6964 25.3372 14.683ZM20.8863 13.7997C21.1205 13.7997 21.3547 13.8069 21.5884 13.8213C21.3554 13.807 21.122 13.7998 20.8885 13.7998C14.5438 13.7998 9.37823 18.9654 9.37823 25.3101C9.37823 31.3588 14.1573 36.4205 20.1179 36.7979C14.1562 36.4216 9.37602 31.3594 9.37602 25.31C9.37602 18.9653 14.5416 13.7997 20.8863 13.7997ZM32.3083 21.0091C32.5308 21.0252 32.7065 21.1716 32.7897 21.3796C33.1827 22.6149 33.4073 23.9624 33.4073 25.31C33.4073 32.2162 27.7364 37.8871 20.8302 37.8871C20.5675 37.8871 20.3067 37.879 20.0478 37.863C20.3074 37.8791 20.569 37.8872 20.8324 37.8872C27.7386 37.8872 33.4095 32.2163 33.4095 25.3101C33.4095 23.9626 33.1849 22.615 32.7919 21.3798C32.7084 21.1711 32.5318 21.0244 32.3083 21.0091ZM24.9391 15.1621L24.9465 15.1651C25.4872 15.3814 26.1828 15.1675 26.415 14.4984C26.6204 13.9613 26.4055 13.279 25.7466 13.0474C24.1621 12.4042 22.522 12.1134 20.8324 12.1134C13.6134 12.1134 7.69186 18.0383 7.69186 25.3101C7.69186 32.5852 13.6167 38.4506 20.8324 38.4506C28.0497 38.4506 33.9729 32.5275 33.9729 25.3101C33.9729 23.9014 33.7384 22.4963 33.3288 21.2089L33.3226 21.1895L33.315 21.1705C33.2135 20.9167 33.0263 20.6916 32.7631 20.56C32.4939 20.4254 32.1839 20.4083 31.8838 20.5084L31.8527 20.5198C31.5989 20.6213 31.3738 20.8084 31.2422 21.0716C31.1076 21.3408 31.0905 21.6508 31.1906 21.951C31.5623 23.0662 31.7231 24.1844 31.7231 25.3663C31.7231 31.398 26.8116 36.257 20.8324 36.257C14.8586 36.257 9.94164 31.2911 9.94164 25.3101C9.94164 19.2766 14.855 14.3632 20.8885 14.3632C22.2769 14.3632 23.6628 14.6303 24.9391 15.1621Z" fill="#6885C1"/>
</svg>
