<svg width="30" height="30" viewBox="0 0 30 30" fill="none" xmlns="http://www.w3.org/2000/svg">
<path d="M28.8783 9.31612C27.7509 6.56116 25.8291 4.20406 23.3576 2.545C20.8861 0.885941 17.9767 0 15 0C12.0233 0 9.11392 0.885941 6.64242 2.545C4.17091 4.20406 2.2491 6.56116 1.12172 9.31612C1.09864 9.35936 1.08058 9.40509 1.06788 9.45243C-0.355961 13.0138 -0.355961 16.9862 1.06788 20.5476C1.08058 20.5949 1.09864 20.6406 1.12172 20.6839C2.2491 23.4388 4.17091 25.7959 6.64242 27.455C9.11392 29.1141 12.0233 30 15 30C17.9767 30 20.8861 29.1141 23.3576 27.455C25.8291 25.7959 27.7509 23.4388 28.8783 20.6839C28.9014 20.6406 28.9194 20.5949 28.9321 20.5476C30.356 16.9862 30.356 13.0138 28.9321 9.45243C28.9194 9.40509 28.9014 9.35936 28.8783 9.31612ZM15 28.6956C12.4883 28.6956 10.2549 25.5282 9.1714 21.0326L20.8286 21.0326C19.7451 25.5282 17.5117 28.6956 15 28.6956ZM8.89592 19.7282C8.33904 16.6007 8.33904 13.3993 8.89592 10.2717L21.1041 10.2717C21.384 11.8322 21.5238 13.4146 21.5217 15C21.5238 16.5854 21.384 18.1678 21.1041 19.7282L8.89592 19.7282ZM1.30435 15C1.30292 13.3865 1.58798 11.7856 2.14626 10.2717L7.55828 10.2717C7.04579 13.4031 7.04579 16.5969 7.55828 19.7282L2.14626 19.7282C1.58798 18.2144 1.30292 16.6135 1.30435 15ZM15 1.30435C17.5117 1.30435 19.7451 4.47173 20.8286 8.96739L9.1714 8.96739C10.2549 4.47173 12.4883 1.30435 15 1.30435ZM22.4417 10.2717L27.8537 10.2717C28.9763 13.324 28.9763 16.676 27.8537 19.7282L22.4417 19.7282C22.7004 18.1655 22.829 16.584 22.8261 15C22.829 13.416 22.7004 11.8345 22.4417 10.2717ZM27.2917 8.96739L22.1878 8.96739C21.5073 5.9222 20.3214 3.42825 18.8199 1.85046C20.6478 2.38567 22.3445 3.2946 23.8028 4.51967C25.2611 5.74475 26.4491 7.25929 27.2917 8.96739ZM11.1801 1.85046C9.67859 3.42825 8.49269 5.9222 7.81224 8.96739L2.70835 8.96739C3.55087 7.25929 4.73889 5.74475 6.19718 4.51967C7.65547 3.2946 9.35225 2.38567 11.1801 1.85046ZM2.70835 21.0326L7.81224 21.0326C8.49269 24.0778 9.6786 26.5717 11.1801 28.1495C9.35225 27.6143 7.65547 26.7054 6.19718 25.4803C4.73889 24.2552 3.55087 22.7407 2.70835 21.0326ZM18.8199 28.1495C20.3214 26.5717 21.5073 24.0778 22.1878 21.0326L27.2917 21.0326C26.4491 22.7407 25.2611 24.2552 23.8028 25.4803C22.3445 26.7054 20.6478 27.6143 18.8199 28.1495Z" fill="#03AB00"/>
</svg>
