<svg width="38" height="29" viewBox="0 0 38 29" fill="none" xmlns="http://www.w3.org/2000/svg">
<path d="M6.53846 23.0977V26.9108C6.53846 27.7508 7.51141 28.2165 8.16566 27.6897L14.8353 22.3188C15.013 22.1757 15.2343 22.0977 15.4625 22.0977H36C36.5523 22.0977 37 21.65 37 21.0977V2C37 1.44772 36.5523 1 36 1H2C1.44772 1 1 1.44772 1 2V21.0977C1 21.65 1.44771 22.0977 2 22.0977H5.53846C6.09075 22.0977 6.53846 22.5454 6.53846 23.0977Z" stroke="#F46060"/>
<path d="M21.4 6.66667C21.4 5.74622 20.5943 5 19.6 5C18.6057 5 17.8 5.74622 17.8 6.66667C17.8 7.58711 18.6057 8.33333 19.6 8.33333C20.5943 8.33333 21.4 7.58711 21.4 6.66667Z" fill="#F46060"/>
<path d="M21.035 11.3076C21.2366 10.0944 20.8 9.11111 19 9.11111C16.6 9.11111 16 11.3333 16 11.3333C17.2 10.7778 17.8 10.7778 17.8 10.7778L16.965 15.8036C16.7634 17.0167 17.2 18 19 18C21.4 18 22 15.7778 22 15.7778C20.8 16.3333 20.2 16.3333 20.2 16.3333L21.035 11.3076Z" fill="#F46060"/>
</svg>
