<svg width="26" height="28" viewBox="0 0 26 28" fill="none" xmlns="http://www.w3.org/2000/svg">
<path d="M21.5383 19.0725C20.1187 19.0725 18.7396 19.7623 17.9284 20.9391L8.59946 15.9072C8.84283 15.3797 8.96451 14.771 8.96451 14.2029C8.96451 13.5942 8.84283 12.9855 8.59946 12.4174L17.9284 7.06087C18.7396 8.23768 20.1187 8.92754 21.5383 8.92754C24.0125 8.92754 26 6.93913 26 4.46377C26 1.98841 24.0125 0 21.5383 0C19.0641 0 17.0766 1.98841 17.0766 4.46377C17.0766 4.82899 17.1172 5.23478 17.2389 5.6L7.70713 11.0783C6.85535 10.2261 5.71966 9.73913 4.50283 9.73913C2.02863 9.73913 0.0411587 11.7275 0.000598057 14.1623C-0.0399626 16.5971 1.98807 18.6261 4.42171 18.6667C5.63853 18.6667 6.81479 18.1797 7.66657 17.287L17.1983 22.4C17.0766 22.7652 17.0361 23.171 17.0361 23.5362C17.0361 26.0116 19.0236 28 21.4978 28C23.972 28 25.9594 26.0116 25.9594 23.5362C25.9594 21.0609 24.0125 19.0725 21.5383 19.0725ZM21.5383 1.62319C23.1202 1.62319 24.3776 2.88116 24.3776 4.46377C24.3776 6.04638 23.1202 7.30435 21.5383 7.30435C19.9565 7.30435 18.6991 6.04638 18.6991 4.46377C18.6991 2.88116 19.9565 1.62319 21.5383 1.62319ZM4.50283 17.0435C2.92097 17.0435 1.66359 15.7855 1.66359 14.2029C1.66359 12.6203 2.92097 11.3623 4.50283 11.3623C6.0847 11.3623 7.34208 12.6203 7.34208 14.2029C7.34208 15.7855 6.0847 17.0435 4.50283 17.0435ZM21.5383 26.3768C19.9565 26.3768 18.6991 25.1188 18.6991 23.5362C18.6991 21.9536 19.9565 20.6957 21.5383 20.6957C23.1202 20.6957 24.3776 21.9536 24.3776 23.5362C24.3776 25.1188 23.1202 26.3768 21.5383 26.3768Z" fill="#F94848"/>
</svg>
