<svg width="32" height="33" viewBox="0 0 32 33" fill="none" xmlns="http://www.w3.org/2000/svg">
<path d="M4.53278 5.6151L2.62667 5.43279C2.56205 5.4258 2.49745 5.44665 2.44897 5.49048C2.40052 5.53431 2.37283 5.59662 2.37283 5.66118V6.58424C2.37283 6.70424 2.46512 6.80588 2.58743 6.81501L6.89349 7.14042C6.89811 7.14042 6.90501 7.14278 6.91194 7.14278C6.97194 7.14278 7.02964 7.11732 7.07349 7.07349C7.12195 7.0274 7.14502 6.96047 7.1404 6.89354L6.81504 2.58745C6.8058 2.46519 6.70428 2.3728 6.58428 2.3728H5.66122C5.5966 2.3728 5.53429 2.40052 5.49046 2.44897C5.4466 2.49742 5.42584 2.5621 5.43277 2.62666L5.61508 4.53283L1.15208 0.0675221C1.0598 -0.0225074 0.914387 -0.0225074 0.824414 0.0675221L0.067501 0.824379C-0.0225003 0.914408 -0.0225003 1.05976 0.067501 1.15216L4.53278 5.6151Z" fill="#F46060"/>
<path d="M6.89349 25.8605L2.58743 26.1858C2.46512 26.1951 2.37283 26.2967 2.37283 26.4166V27.3396C2.37283 27.4043 2.40052 27.4666 2.44897 27.5105C2.49745 27.5543 2.56205 27.5751 2.62667 27.5681L4.53278 27.3858L0.067501 31.8488C-0.0225003 31.9412 -0.0225003 32.0865 0.067501 32.1766L0.824414 32.9334C0.870556 32.9772 0.928247 33.0003 0.988247 33.0003C1.04594 33.0003 1.10594 32.9772 1.15208 32.9334L5.61508 28.4681L5.43277 30.3743C5.42584 30.4388 5.4466 30.5035 5.49046 30.552C5.53429 30.6004 5.5966 30.628 5.66122 30.628H6.58428C6.70428 30.628 6.8058 30.5357 6.81504 30.4135L7.1404 26.1074C7.14502 26.0405 7.12195 25.9735 7.07349 25.9274C7.02733 25.879 6.95811 25.8535 6.89349 25.8605Z" fill="#F46060"/>
<path d="M25.0884 7.14376C25.0953 7.14376 25.1022 7.1414 25.1069 7.1414L29.4129 6.81598C29.5352 6.80685 29.6275 6.70522 29.6275 6.58522V5.66216C29.6275 5.5976 29.5998 5.53529 29.5514 5.49145C29.5029 5.44762 29.4383 5.42678 29.3737 5.43376L27.4676 5.61608L31.9329 1.15313C32.0229 1.06074 32.0229 0.915385 31.9329 0.825355L31.1759 0.0684987C31.086 -0.0215308 30.9406 -0.0215308 30.8483 0.0684987L26.3853 4.53381L26.5676 2.62764C26.5745 2.56307 26.5538 2.49839 26.5099 2.44994C26.4661 2.40149 26.4038 2.37377 26.3391 2.37377H25.4161C25.2961 2.37377 25.1946 2.46617 25.1853 2.58842L24.86 6.89452C24.8553 6.96145 24.8784 7.02838 24.9269 7.07446C24.9707 7.1183 25.0284 7.14376 25.0884 7.14376Z" fill="#F46060"/>
<circle cx="15.5" cy="16.5" r="9.75" stroke="#F46060" stroke-width="1.5"/>
<path d="M27.4676 27.3862L29.3737 27.5686C29.4383 27.5755 29.5029 27.5547 29.5514 27.5109C29.5998 27.467 29.6275 27.4047 29.6275 27.3401V26.417C29.6275 26.2971 29.5352 26.1955 29.4129 26.1862L25.1069 25.8609C25.0445 25.8563 24.973 25.8794 24.9269 25.9279C24.8784 25.9739 24.8553 26.0409 24.86 26.1078L25.1853 30.4139C25.1946 30.5362 25.2961 30.6284 25.4161 30.6284H26.3391C26.4038 30.6284 26.4661 30.6008 26.5099 30.5524C26.5538 30.5039 26.5745 30.4393 26.5676 30.3747L26.3853 28.4685L30.8483 32.9338C30.8944 32.9777 30.9544 33.0008 31.0121 33.0008C31.0721 33.0008 31.1298 32.9777 31.1759 32.9338L31.9329 32.177C32.0229 32.0869 32.0229 31.9416 31.9329 31.8492L27.4676 27.3862Z" fill="#F46060"/>
<path d="M15.4871 20.9952C14.4496 20.9952 13.4122 20.9862 12.377 20.9997C11.7999 21.0088 11.3612 20.7899 11.1169 20.2395C10.8705 19.6801 11.0348 19.1748 11.4109 18.7461C12.042 18.0265 12.8633 17.6272 13.7256 17.3114C14.3934 17.0678 14.428 16.9618 14.0044 16.3978C13.3755 15.5609 13.1702 14.627 13.4554 13.6006C13.7559 12.5223 14.6874 11.8861 15.7291 12.0169C16.8357 12.1568 17.5727 12.9915 17.6592 14.2006C17.7218 15.0714 17.456 15.8248 16.9265 16.488C16.598 16.9009 16.665 17.0543 17.1296 17.2686C17.7975 17.5754 18.4567 17.9115 19.0878 18.2882C19.3514 18.4461 19.5654 18.7213 19.7513 18.983C20.0517 19.4026 20.082 19.8741 19.8312 20.3388C19.5913 20.7832 19.2196 20.9952 18.729 20.9952C17.6483 20.9907 16.5677 20.993 15.4871 20.9952Z" fill="#F46060"/>
</svg>
