<svg width="56" height="44" viewBox="0 0 56 44" fill="none" xmlns="http://www.w3.org/2000/svg">
<path d="M28.8026 8.61485C28.7473 8.51374 28.7053 8.38655 28.7053 8.33122C28.7053 8.12645 28.6055 7.95792 28.4058 7.83328C28.2945 7.76205 28.1889 7.70418 28.1724 7.70418C28.1559 7.70418 27.9053 7.61261 27.6191 7.49878C27.3323 7.38558 27.0436 7.28192 26.9787 7.26793C26.9145 7.25394 26.7892 7.14774 26.7002 7.032C26.6105 6.91498 26.4999 6.80815 26.4547 6.79415C26.2143 6.71212 26.1571 6.34391 26.3256 5.97316C26.3759 5.86123 26.4178 5.7315 26.4185 5.68444C26.4185 5.63929 26.4802 5.52355 26.5552 5.42879C26.7536 5.17696 26.8725 4.63323 26.746 4.55628C26.7193 4.53975 26.6996 4.32035 26.6996 4.05198C26.6996 3.69268 26.6792 3.53814 26.6175 3.41795C26.4954 3.17502 26.2417 2.99696 25.9606 2.95244C25.8181 2.92955 25.6725 2.87295 25.6108 2.81381C25.5282 2.73686 25.4474 2.7146 25.2509 2.71587C24.7504 2.71587 24.2124 3.0065 23.9332 3.42558C23.7354 3.72384 23.6757 4.04626 23.6846 4.75152C23.6903 5.11718 23.7062 5.19922 23.7959 5.32132C23.8537 5.39827 23.9008 5.48412 23.9008 5.50892C23.9008 5.53436 23.9402 5.5935 23.9892 5.63929C24.0382 5.68444 24.0928 5.81672 24.1113 5.93246C24.1304 6.0482 24.1749 6.18302 24.2099 6.23643C24.2455 6.28413 24.2741 6.40369 24.2741 6.49717C24.2741 6.64725 24.2556 6.67651 24.1291 6.72166C24.0502 6.749 23.9078 6.85393 23.8137 6.95441C23.6184 7.16745 23.2197 7.31435 22.3167 7.49941C22.0229 7.56237 21.7583 7.63678 21.7291 7.67048C21.6597 7.74489 21.5434 8.11818 21.4798 8.46731C21.4531 8.61612 21.4193 8.75349 21.406 8.77638C21.3685 8.83807 21.1484 9.97385 21.1484 10.1087V10.2244H25.118H29.0875L29.0627 10.0266C28.9451 9.09308 28.8872 8.77829 28.8026 8.61485Z" fill="#609ECA"/>
<path d="M23.0978 34.3736C23.0145 34.2134 22.9471 34.0156 22.9471 33.9272C22.9471 33.6086 22.7894 33.3434 22.4784 33.1475C22.3048 33.0362 22.1401 32.9466 22.114 32.9466C22.0873 32.9466 21.6962 32.8022 21.2479 32.6254C20.7983 32.4474 20.348 32.2858 20.2476 32.2623C20.1464 32.2407 19.9506 32.0741 19.81 31.8928C19.6708 31.7122 19.4972 31.545 19.4266 31.5221C19.0507 31.3936 18.9604 30.8174 19.2243 30.2368C19.3032 30.0613 19.3687 29.8584 19.37 29.7866C19.37 29.7122 19.4666 29.5316 19.5843 29.3834C19.8952 28.9917 20.0809 28.142 19.8825 28.0199C19.8418 27.9932 19.81 27.6479 19.81 27.2307C19.81 26.6673 19.7789 26.4269 19.6816 26.2374C19.4895 25.859 19.094 25.5805 18.6533 25.5099C18.4307 25.4749 18.203 25.3852 18.1051 25.2937C17.9766 25.1735 17.8488 25.1372 17.5429 25.1398C16.7588 25.1398 15.9174 25.5945 15.4812 26.2514C15.1728 26.7182 15.0786 27.2206 15.0926 28.3233C15.1015 28.8956 15.127 29.0254 15.2662 29.2161C15.3572 29.3376 15.4303 29.4699 15.4303 29.5099C15.4303 29.55 15.4926 29.6422 15.5689 29.7141C15.6446 29.786 15.7305 29.9926 15.7604 30.1726C15.7896 30.3545 15.8596 30.5662 15.9143 30.6457C15.9702 30.7227 16.0147 30.909 16.0147 31.0566C16.0147 31.2925 15.9855 31.3357 15.789 31.4057C15.6643 31.4489 15.4424 31.6124 15.2961 31.7714C14.989 32.1033 14.3664 32.3323 12.9521 32.6248C12.4929 32.7195 12.0783 32.8404 12.0331 32.8906C11.9256 33.0089 11.7425 33.5927 11.6433 34.1358C11.602 34.3692 11.5498 34.5873 11.5282 34.621C11.4703 34.7158 11.125 36.4958 11.125 36.7037V36.8862H17.3362H23.5468L23.5067 36.5765C23.3217 35.1196 23.232 34.6286 23.0978 34.3736Z" fill="#609ECA"/>
<path d="M12.4163 19.1789C12.8114 19.1359 13.0988 18.7892 13.0545 18.4005C13.0118 18.0153 12.6541 17.7378 12.2556 17.7817C8.94542 18.1479 5.87313 20.2202 4.36111 23.104C4.1809 23.4522 4.32143 23.8736 4.67709 24.0522C4.9219 24.1697 5.20493 24.1436 5.41732 24.0021C5.51259 23.9381 5.59441 23.8503 5.651 23.7414C6.94209 21.2681 9.5775 19.4929 12.4163 19.1789Z" fill="#609ECA"/>
<path d="M11.2929 16.103C11.6755 16.0604 11.9579 15.7344 11.9138 15.3684C11.8727 15.0038 11.5276 14.7421 11.1412 14.7833C7.00787 15.2289 3.1667 17.7513 1.27192 21.2579C1.09521 21.5853 1.2321 21.9862 1.57693 22.1513C1.81456 22.2651 2.08925 22.2389 2.29381 22.1039C2.38852 22.0436 2.46757 21.9598 2.52232 21.8593C4.2047 18.7401 7.61797 16.4975 11.2929 16.103Z" fill="#609ECA"/>
<path d="M50.0412 19.6327C49.9579 19.4737 49.8912 19.274 49.8912 19.1875C49.8912 18.8676 49.7334 18.6024 49.4231 18.4072C49.2489 18.2965 49.0842 18.2056 49.0574 18.2056C49.0307 18.2056 48.6415 18.0619 48.1913 17.8857C47.7423 17.7077 47.2927 17.5461 47.1916 17.522C47.0905 17.501 46.894 17.3344 46.7547 17.1519C46.6148 16.9712 46.4418 16.8053 46.3706 16.7811C45.9935 16.6539 45.9051 16.0765 46.1684 15.4959C46.2466 15.3216 46.3134 15.1175 46.314 15.0456C46.314 14.9725 46.41 14.7919 46.5277 14.6437C46.838 14.2513 47.025 13.4017 46.8266 13.2802C46.7859 13.2523 46.7547 12.9082 46.7547 12.4898C46.7547 11.9263 46.7229 11.6872 46.6256 11.4964C46.4342 11.1174 46.0374 10.8389 45.5973 10.7683C45.3754 10.7346 45.1471 10.6436 45.0498 10.5527C44.9213 10.4319 44.7941 10.3956 44.4876 10.3975C43.7035 10.3988 42.8621 10.8541 42.4259 11.5098C42.1181 11.9759 42.0233 12.4802 42.0373 13.5817C42.0456 14.154 42.0723 14.2844 42.2116 14.4745C42.3019 14.5966 42.375 14.7289 42.375 14.769C42.375 14.809 42.4379 14.9006 42.5136 14.9725C42.5893 15.0443 42.6764 15.251 42.705 15.4323C42.7343 15.6129 42.8036 15.8246 42.8589 15.9048C42.9143 15.9817 42.9601 16.1687 42.9601 16.3156C42.9601 16.5515 42.9295 16.5948 42.7343 16.6647C42.609 16.708 42.3877 16.8714 42.2408 17.0304C41.933 17.3623 41.3104 17.5913 39.8967 17.8851C39.4369 17.9798 39.023 18.0988 38.9778 18.1496C38.8691 18.2679 38.6865 18.8517 38.588 19.3961C38.5473 19.6295 38.4945 19.8463 38.4722 19.8813C38.4144 19.9761 38.0703 21.7561 38.0703 21.964V22.1465H44.2815H50.4921L50.4527 21.8362C50.2645 20.3786 50.1761 19.8877 50.0412 19.6327Z" fill="#609ECA"/>
<path d="M44.2432 6.1489C39.99 6.1489 36.2939 8.55657 34.4313 12.0784L31.4379 10.2494C31.9142 9.29681 32.1889 8.22652 32.1889 7.09137C32.1889 3.18097 29.008 0 25.0969 0C21.1865 0 18.0043 3.18097 18.0043 7.09137C18.0043 11.0018 21.1865 14.1846 25.0969 14.1846C27.5574 14.1846 29.7272 12.9236 30.9997 11.0158L34.0465 12.8771C33.4697 14.219 33.1473 15.6956 33.1473 17.2461C33.1473 19.1151 33.616 20.8747 34.4351 22.4213L27.4963 27.6151C25.7958 23.6646 21.867 20.8913 17.3003 20.8913C11.1819 20.8913 6.20312 25.8675 6.20312 31.9872C6.20312 38.1056 11.1819 43.0837 17.3003 43.0837C23.4187 43.0837 28.3974 38.1056 28.3974 31.9872C28.3974 31.0988 28.2811 30.2377 28.0826 29.4084L35.3947 23.9139C37.4221 26.5976 40.6285 28.3426 44.2432 28.3426C50.3616 28.3426 55.3397 23.3651 55.3397 17.2454C55.3397 11.127 50.3616 6.1489 44.2432 6.1489ZM25.0969 13.0552C21.8079 13.0552 19.1312 10.3804 19.1312 7.09073C19.1312 3.80229 21.8079 1.12625 25.0969 1.12625C28.3866 1.12625 31.0627 3.80229 31.0627 7.09073C31.0627 10.3804 28.3866 13.0552 25.0969 13.0552ZM17.3003 41.3196C12.1543 41.3196 7.96722 37.1338 7.96722 31.9872C7.96722 26.8405 12.1536 22.6548 17.3003 22.6548C22.4469 22.6548 26.634 26.8405 26.634 31.9872C26.634 37.1338 22.4463 41.3196 17.3003 41.3196ZM44.2432 26.5791C39.0965 26.5791 34.9108 22.3927 34.9108 17.2454C34.9108 12.1 39.0965 7.913 44.2432 7.913C49.3898 7.913 53.5769 12.1 53.5769 17.2454C53.5769 22.3927 49.3898 26.5791 44.2432 26.5791Z" fill="#609ECA"/>
</svg>
