<svg width="40" height="34" viewBox="0 0 40 34" fill="none" xmlns="http://www.w3.org/2000/svg">
<path d="M18.5404 6.79787C18.4967 6.71807 18.4636 6.6177 18.4636 6.57404C18.4636 6.41244 18.3848 6.27945 18.2272 6.18108C18.1394 6.12487 18.0561 6.0792 18.043 6.0792C18.03 6.0792 17.8323 6.00694 17.6064 5.9171C17.3801 5.82777 17.1522 5.74597 17.101 5.73493C17.0504 5.72389 16.9515 5.64008 16.8812 5.54874C16.8105 5.4564 16.7231 5.37208 16.6875 5.36104C16.4978 5.2963 16.4526 5.00573 16.5856 4.71314C16.6253 4.62482 16.6584 4.52244 16.6589 4.4853C16.6589 4.44967 16.7076 4.35833 16.7668 4.28355C16.9234 4.08481 17.0172 3.65572 16.9174 3.595C16.8963 3.58195 16.8807 3.40881 16.8807 3.19703C16.8807 2.91347 16.8647 2.79152 16.816 2.69667C16.7196 2.50496 16.5194 2.36444 16.2976 2.32931C16.1852 2.31124 16.0702 2.26658 16.0215 2.2199C15.9563 2.15918 15.8926 2.14161 15.7375 2.14262C15.3425 2.14262 14.918 2.37197 14.6976 2.70269C14.5416 2.93807 14.4944 3.19251 14.5014 3.74907C14.5059 4.03764 14.5185 4.10238 14.5892 4.19874C14.6349 4.25946 14.672 4.32721 14.672 4.34679C14.672 4.36686 14.7032 4.41353 14.7418 4.44967C14.7805 4.4853 14.8236 4.58969 14.8382 4.68102C14.8532 4.77236 14.8884 4.87876 14.916 4.92091C14.9441 4.95855 14.9666 5.0529 14.9666 5.12667C14.9666 5.24511 14.9521 5.2682 14.8522 5.30383C14.79 5.32541 14.6776 5.40822 14.6033 5.48751C14.4492 5.65563 14.1346 5.77156 13.4219 5.91761C13.1901 5.96729 12.9813 6.02601 12.9582 6.05261C12.9035 6.11132 12.8117 6.40591 12.7615 6.68144C12.7404 6.79887 12.7138 6.90727 12.7033 6.92534C12.6736 6.97402 12.5 7.87034 12.5 7.97673V8.06807H15.6326H18.7652L18.7456 7.91199C18.6528 7.17527 18.6071 6.92684 18.5404 6.79787Z" fill="#609ECA"/>
<path d="M14.0384 27.126C13.9726 26.9995 13.9194 26.8434 13.9194 26.7737C13.9194 26.5222 13.795 26.313 13.5495 26.1584C13.4125 26.0706 13.2826 25.9998 13.262 25.9998C13.2409 25.9998 12.9323 25.8859 12.5784 25.7464C12.2236 25.6058 11.8683 25.4784 11.789 25.4598C11.7092 25.4427 11.5546 25.3112 11.4437 25.1682C11.3338 25.0257 11.1968 24.8937 11.1411 24.8756C10.8445 24.7743 10.7733 24.3196 10.9815 23.8614C11.0438 23.7229 11.0954 23.5628 11.0965 23.5061C11.0965 23.4473 11.1727 23.3048 11.2656 23.1879C11.511 22.8787 11.6575 22.2082 11.501 22.1119C11.4688 22.0908 11.4437 21.8183 11.4437 21.4891C11.4437 21.0444 11.4191 20.8547 11.3424 20.7052C11.1908 20.4066 10.8786 20.1868 10.5309 20.131C10.3552 20.1034 10.1755 20.0327 10.0983 19.9604C9.99688 19.8656 9.896 19.837 9.65461 19.839C9.03582 19.839 8.37186 20.1978 8.02758 20.7162C7.78418 21.0846 7.7099 21.481 7.72094 22.3513C7.72797 22.8029 7.74804 22.9053 7.85795 23.0559C7.92972 23.1517 7.98743 23.2561 7.98743 23.2877C7.98743 23.3194 8.03661 23.3921 8.09684 23.4488C8.15656 23.5056 8.22431 23.6687 8.2479 23.8107C8.27098 23.9542 8.32619 24.1213 8.36935 24.1841C8.41351 24.2448 8.44864 24.3918 8.44864 24.5083C8.44864 24.6945 8.42556 24.7286 8.27048 24.7838C8.17212 24.8179 7.99697 24.9469 7.88154 25.0724C7.63914 25.3343 7.14782 25.515 6.03169 25.7459C5.66934 25.8206 5.34213 25.916 5.3065 25.9556C5.22168 26.049 5.07715 26.5097 4.99886 26.9383C4.96624 27.1225 4.92509 27.2946 4.90802 27.3212C4.86235 27.396 4.58984 28.8007 4.58984 28.9648V29.1088H9.4915H14.3927L14.361 28.8644C14.215 27.7146 14.1442 27.3272 14.0384 27.126Z" fill="#609ECA"/>
<path d="M35.2947 15.4931C35.2289 15.3677 35.1762 15.2101 35.1762 15.1418C35.1762 14.8894 35.0518 14.6801 34.8068 14.5261C34.6693 14.4387 34.5394 14.367 34.5183 14.367C34.4972 14.367 34.1901 14.2535 33.8347 14.1145C33.4804 13.974 33.1256 13.8465 33.0458 13.8275C32.966 13.8109 32.811 13.6794 32.701 13.5354C32.5906 13.3929 32.4541 13.2619 32.3979 13.2428C32.1003 13.1424 32.0306 12.6867 32.2383 12.2285C32.3001 12.091 32.3528 11.9299 32.3533 11.8732C32.3533 11.8155 32.429 11.673 32.5219 11.5561C32.7668 11.2464 32.9143 10.5759 32.7578 10.4801C32.7256 10.458 32.701 10.1865 32.701 9.85625C32.701 9.4116 32.676 9.22291 32.5992 9.07235C32.4481 8.77324 32.135 8.55342 31.7877 8.49772C31.6125 8.47112 31.4323 8.39935 31.3556 8.32759C31.2542 8.23224 31.1538 8.20363 30.9119 8.20513C30.2931 8.20614 29.6292 8.56547 29.2849 9.08289C29.042 9.45075 28.9672 9.84872 28.9783 10.7179C28.9848 11.1696 29.0059 11.2725 29.1158 11.4226C29.187 11.5189 29.2447 11.6233 29.2447 11.6549C29.2447 11.6865 29.2944 11.7588 29.3541 11.8155C29.4139 11.8722 29.4826 12.0353 29.5052 12.1784C29.5283 12.3209 29.583 12.488 29.6267 12.5512C29.6703 12.612 29.7065 12.7595 29.7065 12.8754C29.7065 13.0616 29.6824 13.0958 29.5283 13.151C29.4294 13.1851 29.2548 13.3141 29.1388 13.4395C28.8959 13.7015 28.4046 13.8822 27.289 14.114C26.9262 14.1888 26.5994 14.2827 26.5638 14.3228C26.478 14.4161 26.334 14.8769 26.2562 15.3064C26.2241 15.4906 26.1824 15.6618 26.1648 15.6894C26.1192 15.7641 25.8477 17.1688 25.8477 17.333V17.477H30.7493H35.6505L35.6194 17.2321C35.4708 16.0818 35.4011 15.6944 35.2947 15.4931Z" fill="#609ECA"/>
<path d="M30.7229 4.85248C27.3664 4.85248 24.4496 6.75252 22.9797 9.53182L20.6174 8.08847C20.9933 7.33668 21.2101 6.49205 21.2101 5.59623C21.2101 2.5103 18.6998 0 15.6134 0C12.5275 0 10.0162 2.5103 10.0162 5.59623C10.0162 8.68217 12.5275 11.194 15.6134 11.194C17.5551 11.194 19.2674 10.1988 20.2717 8.69321L22.6761 10.1622C22.2209 11.2211 21.9664 12.3864 21.9664 13.6099C21.9664 15.0849 22.3363 16.4735 22.9827 17.6941L17.5069 21.7928C16.1649 18.6752 13.0644 16.4866 9.46057 16.4866C4.63218 16.4866 0.703125 20.4137 0.703125 25.2431C0.703125 30.0714 4.63218 34 9.46057 34C14.289 34 18.218 30.0714 18.218 25.2431C18.218 24.542 18.1262 23.8624 17.9696 23.208L23.74 18.8719C25.3399 20.9898 27.8703 22.3669 30.7229 22.3669C35.5513 22.3669 39.4798 18.4388 39.4798 13.6094C39.4798 8.78104 35.5513 4.85248 30.7229 4.85248ZM15.6134 10.3027C13.0178 10.3027 10.9054 8.19185 10.9054 5.59573C10.9054 3.00062 13.0178 0.888794 15.6134 0.888794C18.2095 0.888794 20.3213 3.00062 20.3213 5.59573C20.3213 8.19185 18.2095 10.3027 15.6134 10.3027ZM9.46057 32.6078C5.39953 32.6078 2.09528 29.3046 2.09528 25.2431C2.09528 21.1815 5.39902 17.8783 9.46057 17.8783C13.5221 17.8783 16.8264 21.1815 16.8264 25.2431C16.8264 29.3046 13.5216 32.6078 9.46057 32.6078ZM30.7229 20.9752C26.6613 20.9752 23.3581 17.6715 23.3581 13.6094C23.3581 9.54888 26.6613 6.24464 30.7229 6.24464C34.7844 6.24464 38.0887 9.54888 38.0887 13.6094C38.0887 17.6715 34.7844 20.9752 30.7229 20.9752Z" fill="#609ECA"/>
</svg>
