<svg width="32" height="32" viewBox="0 0 32 32" fill="none" xmlns="http://www.w3.org/2000/svg">
<path d="M24.9925 9.47434C24.843 9.58646 24.8057 9.81069 24.9178 9.99755C26.4874 12.1651 27.3095 14.7437 27.3095 17.4719C27.3095 24.5351 21.5917 30.2529 14.5285 30.2529C7.46527 30.2529 1.71006 24.4977 1.71006 17.4719C1.71006 10.4086 7.46527 4.69079 14.5285 4.69079C17.1071 4.69079 19.5736 5.43822 21.7038 6.89571C21.8907 7.00782 22.1149 6.97045 22.227 6.7836C22.3391 6.59674 22.3018 6.37251 22.1149 6.26039C19.8726 4.72816 17.2566 3.94336 14.5285 3.94336C7.05419 3.94336 1 9.99755 1 17.4719C1 24.9462 7.05419 31.0003 14.5285 31.0003C22.0028 31.0003 28.057 24.9462 28.057 17.4719C28.057 14.6316 27.1601 11.9035 25.5157 9.58646C25.3662 9.3996 25.142 9.36223 24.9925 9.47434Z" fill="#4D90BF" stroke="#4D90BF" stroke-width="0.5"/>
<path d="M14.5297 9.81091C15.5013 9.81091 16.473 9.99776 17.3699 10.3715C17.5568 10.4462 17.781 10.3715 17.8558 10.1473C17.9305 9.96039 17.8558 9.73616 17.6315 9.66142C16.6225 9.25033 15.5761 9.06348 14.4923 9.06348C9.89562 9.06348 6.12109 12.838 6.12109 17.4721C6.12109 22.1061 9.89562 25.8433 14.4923 25.8433C19.089 25.8433 22.8635 22.0688 22.8635 17.4721C22.8635 16.5752 22.7141 15.6782 22.4524 14.8561C22.3777 14.6692 22.1908 14.5571 21.9666 14.6318C21.7798 14.7066 21.6676 14.8934 21.7424 15.1177C22.004 15.9025 22.1161 16.6873 22.1161 17.5094C22.1161 21.7324 18.6779 25.1332 14.4923 25.1332C10.3067 25.1332 6.86852 21.6577 6.86852 17.4721C6.86852 13.2491 10.3067 9.81091 14.5297 9.81091Z" fill="#4D90BF" stroke="#4D90BF" stroke-width="0.5"/>
<path d="M31.1238 4.42884C31.1612 4.35409 31.1612 4.24198 31.1238 4.12987C31.0864 4.05512 31.0117 3.98038 30.9369 3.94301C30.8622 3.94301 30.8248 3.94301 30.7501 3.94301H28.0219V1.36437C28.0219 1.327 28.0219 1.25226 27.9846 1.21489C27.9472 1.14014 27.8725 1.0654 27.7977 1.02803C27.723 0.990657 27.6109 0.990657 27.4987 1.02803C27.4987 1.02803 27.424 1.0654 27.424 1.10277L23.7616 4.76518C23.7242 4.80255 23.6869 4.83992 23.6869 4.8773C23.6495 4.91467 23.6495 4.98941 23.6495 5.02678V7.82965L15.8388 15.6029C15.4651 15.3787 15.054 15.2292 14.6056 15.2292C13.3723 15.2292 12.3633 16.2382 12.3633 17.4715C12.3633 18.7048 13.3723 19.7138 14.6056 19.7138C15.8388 19.7138 16.8479 18.7048 16.8479 17.4715C16.8479 16.9857 16.6984 16.4998 16.3994 16.1261L24.2101 8.31548H27.1624C27.1998 8.31548 27.2745 8.31548 27.3119 8.2781C27.3493 8.24073 27.3866 8.24073 27.424 8.20336L31.0864 4.54095C31.049 4.54095 31.0864 4.50358 31.1238 4.42884ZM26.9755 7.56805H24.3969V5.1389L27.3119 2.22392V4.31672C27.3119 4.54095 27.4614 4.69044 27.6856 4.69044H29.8905L26.9755 7.56805ZM16.0631 17.4715C16.0631 18.2937 15.3904 18.9664 14.5682 18.9664C13.746 18.9664 13.0733 18.2937 13.0733 17.4715C13.0733 16.6493 13.746 15.9766 14.5682 15.9766C14.8298 15.9766 15.054 16.0514 15.2783 16.1635L14.2319 17.2099C14.0824 17.3594 14.0824 17.5836 14.2319 17.7331C14.3066 17.8078 14.4187 17.8452 14.4935 17.8452C14.5682 17.8452 14.6803 17.8078 14.7551 17.7331L15.8388 16.6493C15.9883 16.8736 16.0631 17.1725 16.0631 17.4715Z" fill="#4D90BF" stroke="#4D90BF" stroke-width="0.5"/>
</svg>
