<?xml version="1.0" standalone="no"?>
<!DOCTYPE svg PUBLIC "-//W3C//DTD SVG 20010904//EN"
 "http://www.w3.org/TR/2001/REC-SVG-20010904/DTD/svg10.dtd">
<svg version="1.0" xmlns="http://www.w3.org/2000/svg"
 width="501.000000pt" height="501.000000pt" viewBox="0 0 501.000000 501.000000"
 preserveAspectRatio="xMidYMid meet">
<metadata>
Created by potrace 1.11, written by Peter Selinger 2001-2013
</metadata>
<g transform="translate(0.000000,501.000000) scale(0.100000,-0.100000)"
fill="#000000" stroke="none">
<path d="M58 4378 c-50 -17 -56 -49 -53 -313 1 -132 5 -248 10 -258 18 -42 51
-47 308 -47 l244 0 27 25 c14 13 27 30 27 37 1 7 3 119 4 248 3 258 -3 289
-53 308 -34 13 -477 13 -514 0z"/>
<path d="M1017 4367 c-19 -11 -44 -37 -56 -57 -20 -36 -21 -50 -21 -392 0
-399 1 -402 76 -445 38 -22 49 -23 294 -23 l255 0 0 467 -1 468 -256 1 c-239
1 -258 0 -291 -19z"/>
<path d="M1872 3918 l3 -471 625 -2 c651 -2 650 -2 803 -47 321 -95 597 -367
707 -696 71 -214 74 -439 8 -667 -77 -267 -286 -520 -539 -653 -65 -34 -174
-78 -219 -87 -8 -2 -35 -8 -60 -13 -94 -22 -149 -23 -732 -24 l-598 0 2 -471
3 -471 555 0 c741 -1 783 2 1100 79 8 2 61 20 118 39 568 200 1030 660 1235
1232 26 73 72 235 82 289 13 74 25 155 31 215 7 76 7 293 0 366 -8 76 -17 147
-21 164 -2 8 -7 31 -10 50 -34 205 -148 491 -273 689 -33 53 -128 182 -176
239 -57 70 -220 225 -291 277 -22 17 -42 33 -45 36 -3 4 -47 34 -99 68 -235
154 -542 270 -811 307 -25 3 -54 9 -65 11 -11 3 -316 7 -678 9 l-657 2 2 -470z"/>
<path d="M986 3127 c-33 -11 -39 -36 -41 -157 -1 -147 4 -152 139 -152 130 0
135 1 156 22 18 18 20 33 20 134 0 156 -2 158 -142 160 -58 1 -117 -2 -132 -7z"/>
<path d="M64 2491 c-56 -34 -61 -57 -59 -304 1 -315 -9 -305 320 -303 307 2
299 -7 300 304 0 330 8 322 -317 322 -190 0 -216 -2 -244 -19z"/>
<path d="M51 1242 c-38 -18 -45 -38 -46 -132 -3 -135 15 -153 150 -156 143 -3
165 16 165 145 0 95 -10 125 -47 144 -37 20 -182 19 -222 -1z"/>
<path d="M1032 1244 c-34 -14 -67 -50 -81 -87 -7 -18 -11 -154 -11 -375 0
-319 2 -350 19 -382 10 -19 30 -44 45 -55 26 -19 42 -20 294 -20 l266 0 1 458
c0 253 -2 462 -5 466 -9 13 -497 8 -528 -5z"/>
</g>
</svg>
