<svg width="56" height="45" viewBox="0 0 56 45" fill="none" xmlns="http://www.w3.org/2000/svg">
<path d="M43.5524 9.61511H11.9465C11.4971 9.61511 11.1328 9.97935 11.1328 10.4288C11.1328 10.8782 11.4971 11.2425 11.9465 11.2425H43.5524C44.0019 11.2425 44.3661 10.8782 44.3661 10.4288C44.3661 9.97935 44.0019 9.61511 43.5524 9.61511Z" fill="#498EBE"/>
<path d="M43.5524 18.4748H11.9465C11.4971 18.4748 11.1328 18.8391 11.1328 19.2885C11.1328 19.7378 11.4971 20.1022 11.9465 20.1022H43.5524C44.0019 20.1022 44.3661 19.738 44.3661 19.2885C44.3661 18.8391 44.0019 18.4748 43.5524 18.4748Z" fill="#498EBE"/>
<path d="M33.1882 24.2246H22.3059C21.8564 24.2246 21.4922 24.5889 21.4922 25.0383C21.4922 25.4876 21.8564 25.852 22.3059 25.852H33.1882C33.6377 25.852 34.0019 25.4877 34.0019 25.0383C34.0019 24.5889 33.6377 24.2246 33.1882 24.2246Z" fill="#498EBE"/>
<path d="M43.5569 14.0268H19.9817C19.5322 14.0268 19.168 14.3911 19.168 14.8405C19.168 15.2899 19.5322 15.6542 19.9817 15.6542H43.5569C44.0064 15.6542 44.3706 15.29 44.3706 14.8405C44.3706 14.3911 44.0064 14.0268 43.5569 14.0268Z" fill="#498EBE"/>
<path d="M16.1914 14.0267H11.9465C11.4971 14.0267 11.1328 14.391 11.1328 14.8404C11.1328 15.2899 11.4971 15.6541 11.9465 15.6541H16.1914C16.6409 15.6541 17.0051 15.2899 17.0051 14.8404C17.0051 14.3911 16.6409 14.0267 16.1914 14.0267Z" fill="#498EBE"/>
<path d="M51.3003 8.23985C51.111 8.05394 50.8605 7.9516 50.5932 7.9516C50.593 7.9516 50.5929 7.9516 50.5927 7.9516C48.9435 7.9516 47.5938 6.66245 47.5195 5.01621C47.4951 4.48091 47.0552 4.06171 46.5181 4.06171H8.78664C8.24938 4.06171 7.80936 4.48102 7.78508 5.01675C7.71429 6.58982 6.42655 7.87767 4.85338 7.94846C4.31786 7.97253 3.89844 8.41254 3.89844 8.95001V29.9829C3.89844 30.5203 4.31786 30.9602 4.85338 30.9843C6.42655 31.0552 7.71429 32.3429 7.78508 33.9166C7.80947 34.4519 8.24949 34.8711 8.78664 34.8711H32.8067C33.2561 34.8711 33.6204 34.5068 33.6204 34.0574C33.6204 33.608 33.2561 33.2437 32.8067 33.2437H9.34622C9.00984 31.2838 7.48556 29.7595 5.5257 29.4231V9.50949C7.48556 9.17311 9.00984 7.6485 9.34622 5.68897H45.9588C46.309 7.71073 47.9367 9.27133 49.9726 9.53844V23.3567C49.9726 23.8061 50.3369 24.1704 50.7863 24.1704C51.2358 24.1704 51.6 23.8062 51.6 23.3567V8.95457C51.6 8.68366 51.4935 8.42978 51.3003 8.23985Z" fill="#498EBE"/>
<path d="M53.2447 0H2.25862C1.01326 0 0 1.01326 0 2.25862V36.674C0 37.9194 1.01326 38.9326 2.25862 38.9326H36.4114L35.2023 41.4663C35.0469 41.7916 35.0847 42.1731 35.3007 42.4617C35.5167 42.7504 35.8722 42.8938 36.2279 42.8369L38.479 42.475L39.7347 44.5361C39.9107 44.8254 40.2236 44.9999 40.5597 44.9999C40.5761 44.9999 40.5926 44.9995 40.6091 44.9986C40.9638 44.9806 41.2791 44.7703 41.4323 44.4496L43.614 39.8779L45.7956 44.4493C45.9484 44.77 46.2638 44.9805 46.6186 44.9987C46.6352 44.9996 46.6519 45 46.6684 45C47.0045 45 47.3174 44.8255 47.4934 44.5364L48.7491 42.4753L51.0002 42.8372C51.357 42.8942 51.7118 42.7504 51.9276 42.4616C52.1436 42.1728 52.1811 41.7914 52.0257 41.4666L50.8166 38.9329H53.2447C54.4901 38.9329 55.5034 37.9197 55.5034 36.6743V2.25862C55.5034 1.01326 54.4901 0 53.2447 0ZM40.4894 42.6471L39.6376 41.2492C39.4325 40.9125 39.0486 40.7353 38.659 40.7979L37.2135 41.0303L38.7361 37.8397C39.3363 38.4521 40.1913 38.783 41.0788 38.6994C41.3822 38.6703 41.6864 38.7521 41.935 38.9287C42.0169 38.987 42.102 39.0387 42.1882 39.0875L40.4894 42.6471ZM43.8081 37.8222C43.8056 37.8225 43.8031 37.8227 43.8005 37.8232C43.6771 37.8414 43.5517 37.8414 43.4283 37.8233C43.4252 37.8228 43.4221 37.8225 43.419 37.8221C43.2279 37.7925 43.0421 37.7193 42.8775 37.6023C42.3854 37.2524 41.7977 37.0664 41.1982 37.0664C41.1074 37.0664 41.0163 37.0707 40.9253 37.0793C40.3866 37.1301 39.8748 36.8343 39.65 36.343C39.5502 36.1249 39.4228 35.923 39.2749 35.7384C39.2684 35.7292 39.2613 35.7205 39.2544 35.7116C39.2462 35.7017 39.2385 35.6914 39.2303 35.6815C39.2208 35.6704 39.211 35.6599 39.2009 35.6494C38.9318 35.3398 38.5993 35.087 38.2207 34.9138C37.7293 34.6889 37.4334 34.1764 37.4844 33.6384C37.5499 32.9461 37.3642 32.2528 36.9613 31.6861C36.6482 31.2457 36.6482 30.6539 36.9612 30.2134C37.3642 29.6468 37.5499 28.9535 37.4844 28.2612C37.4334 27.7232 37.7294 27.2106 38.2207 26.9858C38.853 26.6965 39.3606 26.1889 39.6499 25.5566C39.8748 25.0652 40.3885 24.7692 40.9253 24.8203C41.6183 24.8857 42.311 24.7 42.8777 24.2971C43.3182 23.9841 43.91 23.9841 44.3503 24.2971C44.9171 24.7 45.6099 24.8852 46.3027 24.8203C46.8412 24.7691 47.3534 25.0653 47.5782 25.5566C47.8675 26.1889 48.3751 26.6965 49.0073 26.9857C49.4987 27.2106 49.7946 27.7232 49.7437 28.2611C49.6782 28.9535 49.8639 29.6468 50.2668 30.2133C50.5799 30.6538 50.5799 31.2456 50.2668 31.686C49.8639 32.2528 49.6782 32.9461 49.7437 33.6383C49.7946 34.1763 49.4987 34.6888 49.0072 34.9138C48.6294 35.0867 48.2977 35.3388 48.0289 35.6475C48.0179 35.659 48.007 35.6706 47.9969 35.6826C47.9898 35.691 47.9832 35.6998 47.9762 35.7084C47.968 35.7188 47.9598 35.729 47.9522 35.7397C47.8048 35.924 47.6777 36.1254 47.5782 36.343C47.3533 36.8343 46.8407 37.1303 46.3027 37.0793C45.6111 37.0141 44.9173 37.1995 44.3503 37.6023C44.1856 37.7194 43.9995 37.7927 43.8081 37.8222ZM48.569 40.7978C48.1793 40.7355 47.7956 40.9125 47.5903 41.2493L46.7387 42.6472L45.0399 39.0875C45.1261 39.0387 45.2111 38.987 45.2931 38.9287C45.5418 38.752 45.8462 38.67 46.1493 38.6993C47.0372 38.783 47.8919 38.4521 48.4921 37.8397L50.0146 41.0302L48.569 40.7978ZM53.8761 36.6741C53.8761 37.0222 53.5929 37.3054 53.2447 37.3054H50.04L49.6204 36.4262C49.6416 36.4151 49.6626 36.4034 49.6845 36.3934C50.805 35.8805 51.4798 34.7117 51.3637 33.485C51.335 33.1815 51.4164 32.8774 51.5931 32.6288C52.307 31.6244 52.307 30.2748 51.593 29.2704C51.4164 29.022 51.335 28.718 51.3637 28.4144C51.4798 27.1877 50.805 26.0188 49.6844 25.506C49.4072 25.379 49.1847 25.1565 49.0577 24.8793C48.545 23.7587 47.3756 23.0841 46.1492 23.2001C45.8455 23.229 45.5416 23.1474 45.2931 22.9707C44.2888 22.2567 42.939 22.2566 41.9347 22.9707C41.6862 23.1474 41.3814 23.229 41.0787 23.2C39.8504 23.0844 38.6829 23.7587 38.1703 24.8792C38.0433 25.1565 37.8208 25.3789 37.5435 25.5059C36.423 26.0187 35.7482 27.1874 35.8643 28.4143C35.893 28.7179 35.8116 29.0219 35.6349 29.2704C34.9209 30.2748 34.9209 31.6244 35.6349 32.6287C35.8116 32.8772 35.893 33.1813 35.8643 33.4849C35.7482 34.7117 36.423 35.8805 37.5435 36.3933C37.5654 36.4033 37.5863 36.415 37.6074 36.4261L37.1879 37.3054H2.25862C1.91053 37.3054 1.62727 37.0223 1.62727 36.6741V2.25862C1.62727 1.91053 1.91042 1.62727 2.25862 1.62727H53.2447C53.5928 1.62727 53.8761 1.91053 53.8761 2.25862V36.6741Z" fill="#498EBE"/>
<path d="M43.5515 25.8943C40.7639 25.8943 38.4961 28.1622 38.4961 30.9496C38.4961 33.7371 40.7639 36.005 43.5515 36.005C46.339 36.005 48.6067 33.737 48.6067 30.9496C48.6067 28.1621 46.339 25.8943 43.5515 25.8943ZM43.5515 34.3776C41.6612 34.3776 40.1234 32.8397 40.1234 30.9495C40.1234 29.0593 41.6612 27.5215 43.5515 27.5215C45.4416 27.5215 46.9794 29.0593 46.9794 30.9495C46.9794 32.8397 45.4416 34.3776 43.5515 34.3776Z" fill="#498EBE"/>
</svg>
