<svg width="55" height="55" viewBox="0 0 55 55" fill="none" xmlns="http://www.w3.org/2000/svg">
<path d="M42.1471 24.2846C42.1471 22.5434 40.7306 21.127 38.9894 21.127H33.1863C34.5962 19.5422 35.5176 17.7377 35.6956 16.1187C35.8043 15.1299 35.4988 14.1484 34.8572 13.4258C34.2708 12.7652 33.4689 12.3971 32.5992 12.389C32.5891 12.3889 32.579 12.3889 32.569 12.3889C31.7278 12.3889 30.9382 12.7129 30.3424 13.3033C29.7464 13.8938 29.4166 14.6804 29.4127 15.5199C29.3821 15.7037 29.0588 16.3374 28.2676 17.0898C27.6199 17.706 26.501 18.553 24.8489 19.0894C24.2012 19.2997 23.6092 19.6869 23.0895 20.2404C22.8167 20.5306 22.4083 20.9315 21.9027 21.3339C21.6545 21.2025 21.3723 21.1273 21.0725 21.1273H15.561C14.5796 21.1273 13.7812 21.9256 13.7812 22.907V37.6043C13.7812 38.5857 14.5796 39.384 15.561 39.384H21.0725C21.7415 39.384 22.3249 39.0126 22.6289 38.4655H36.6929C38.1808 38.4655 39.3913 37.255 39.3913 35.7671C39.3913 35.2669 39.2545 34.7981 39.0163 34.3959C39.7915 33.9213 40.3098 33.0664 40.3098 32.0928C40.3098 31.5925 40.1731 31.1237 39.9348 30.7215C40.7101 30.2469 41.2284 29.3921 41.2284 28.4184C41.2284 27.8553 41.055 27.3319 40.7589 26.8988C41.596 26.3302 42.1471 25.3705 42.1471 24.2846ZM38.9894 25.7199H38.5301C38.0545 25.7199 37.6689 26.1054 37.6689 26.5811C37.6689 27.0566 38.0544 27.4423 38.5301 27.4423C39.0683 27.4423 39.5061 27.8801 39.5061 28.4183C39.5061 28.9565 39.0683 29.3943 38.5301 29.3943H37.6115C37.1359 29.3943 36.7503 29.7799 36.7503 30.2555C36.7503 30.7311 37.1358 31.1167 37.6115 31.1167C38.1497 31.1167 38.5875 31.5546 38.5875 32.0928C38.5875 32.631 38.1497 33.0688 37.6115 33.0688H36.6929C36.2174 33.0688 35.8317 33.4543 35.8317 33.93C35.8317 34.4056 36.2173 34.7912 36.6929 34.7912C37.2311 34.7912 37.669 35.2291 37.669 35.7672C37.669 36.3054 37.2311 36.7433 36.6929 36.7433H22.8523V28.4186C22.8523 27.9431 22.4667 27.5574 21.9911 27.5574C21.5154 27.5574 21.1299 27.943 21.1299 28.4186V37.6044C21.1299 37.6361 21.1042 37.6617 21.0725 37.6617H15.561C15.5293 37.6617 15.5037 37.6361 15.5037 37.6044V22.9067C15.5037 22.875 15.5293 22.8493 15.561 22.8493H21.0725C21.1042 22.8493 21.1299 22.875 21.1299 22.9067V24.7439C21.1299 25.2195 21.5154 25.6051 21.9911 25.6051C22.4667 25.6051 22.8523 25.2196 22.8523 24.7439V22.9067C22.8523 22.8649 22.8488 22.824 22.8459 22.783C23.4916 22.2831 24.008 21.7778 24.3449 21.4192C24.6636 21.0797 25.0121 20.847 25.3807 20.7274C27.4077 20.0694 28.7719 19.0098 29.5592 18.2367C30.5459 17.2679 31.1349 16.2579 31.1349 15.5349C31.1349 15.1529 31.2839 14.7948 31.5545 14.5267C31.8284 14.2553 32.1912 14.1119 32.5832 14.1113C33.0659 14.1158 33.3856 14.3628 33.569 14.5693C33.8833 14.9232 34.038 15.4322 33.9833 15.9305C33.7952 17.6416 32.4268 19.7568 30.4971 21.3189C30.2136 21.5485 30.1054 21.9317 30.2271 22.2756C30.3488 22.6195 30.6741 22.8493 31.0389 22.8493H38.9892C39.7807 22.8493 40.4244 23.4931 40.4244 24.2846C40.4244 25.0761 39.7808 25.7199 38.9894 25.7199Z" fill="#5DAB00"/>
<path d="M18.3149 33.9778C17.8394 33.9778 17.4492 34.368 17.4492 34.8435C17.4492 35.3191 17.8394 35.7092 18.3149 35.7092C18.7905 35.7092 19.1806 35.3191 19.1806 34.8435C19.1808 34.3681 18.7906 33.9778 18.3149 33.9778Z" fill="#5DAB00"/>
<path d="M53.465 27.5L54.9444 23.5852C55.0521 23.3004 55.0013 22.98 54.8109 22.7422L52.1942 19.4762L52.3914 15.2959C52.4058 14.9919 52.2584 14.7026 52.004 14.5355L48.5062 12.2379L47.4021 8.20119C47.3217 7.9075 47.0923 7.67805 46.7987 7.5978L42.762 6.49372L40.4643 2.99596C40.2972 2.74147 40.008 2.59474 39.704 2.60859L35.5237 2.80582L32.2576 0.18913C32.02 -0.00122182 31.6996 -0.0520324 31.4147 0.0556043L27.4999 1.53502L23.5854 0.0557118C23.3004 -0.0520324 22.98 -0.00122183 22.7424 0.189237L19.4764 2.80593L15.296 2.6087C14.9905 2.59431 14.7028 2.74169 14.5357 2.99606L12.2382 6.49394L8.20148 7.59802C7.90779 7.67837 7.67833 7.90782 7.59809 8.20141L6.49401 12.2381L2.99614 14.5356C2.74165 14.7028 2.59438 14.992 2.60877 15.296L2.806 19.4763L0.18931 22.7424C-0.0010414 22.98 -0.0518519 23.3004 0.0557848 23.5853L1.53509 27.5L0.0556774 31.4146C-0.0520668 31.6994 -0.00125624 32.0198 0.189203 32.2576L2.80589 35.5236L2.60867 39.7039C2.59427 40.008 2.74165 40.2972 2.99603 40.4643L6.4939 42.7619L7.59798 46.7986C7.67833 47.0923 7.90779 47.3218 8.20137 47.402L12.2381 48.5061L14.5356 52.004C14.7028 52.2585 14.9925 52.4048 15.2959 52.3913L19.4763 52.1941L22.7423 54.8108C22.9799 55.0013 23.3005 55.0521 23.5853 54.9443L27.5 53.4649L31.4148 54.9443C31.5136 54.9816 31.6167 54.9999 31.7191 54.9999C31.9121 54.9999 32.1025 54.9351 32.2576 54.8108L35.5237 52.1941L39.704 52.3913C40.009 52.4049 40.2972 52.2583 40.4643 52.004L42.762 48.5061L46.7987 47.402C47.0924 47.3217 47.3218 47.0922 47.4021 46.7986L48.5062 42.7619L52.004 40.4643C52.2585 40.2971 52.4058 40.008 52.3914 39.7039L52.1942 35.5236L54.8109 32.2576C55.0012 32.02 55.052 31.6995 54.9444 31.4146L53.465 27.5ZM51.7388 27.8044L53.1596 31.5641L50.6465 34.7007C50.5154 34.8643 50.4485 35.0702 50.4583 35.2797L50.6478 39.2944L47.2886 41.5009C47.1134 41.616 46.986 41.7912 46.9307 41.9935L45.8704 45.8703L41.9936 46.9306C41.7913 46.986 41.6162 47.1133 41.501 47.2886L39.2944 50.6478L35.2797 50.4583C35.0702 50.4486 34.8643 50.5153 34.7007 50.6465L31.5641 53.1595L27.8045 51.7387C27.7064 51.7017 27.6032 51.6832 27.5 51.6832C27.3969 51.6832 27.2937 51.7018 27.1956 51.7387L23.4359 53.1595L20.2993 50.6465C20.1357 50.5153 19.9295 50.4486 19.7203 50.4583L15.7056 50.6478L13.4991 47.2886C13.384 47.1134 13.2088 46.986 13.0065 46.9306L9.12971 45.8703L8.06935 41.9935C8.01403 41.7913 7.88673 41.6162 7.71142 41.5009L4.35223 39.2944L4.54172 35.2797C4.5516 35.0701 4.48468 34.8643 4.35352 34.7007L1.84049 31.5641L3.26136 27.8044C3.33548 27.6082 3.33548 27.3917 3.26136 27.1955L1.84049 23.4359L4.35352 20.2993C4.48468 20.1357 4.5516 19.9297 4.54172 19.7203L4.35223 15.7056L7.71142 13.499C7.88662 13.384 8.01403 13.2088 8.06935 13.0064L9.12971 9.12964L13.0065 8.06928C13.2087 8.01396 13.3838 7.88666 13.4991 7.71135L15.7056 4.35216L19.7203 4.54165C19.9296 4.55143 20.1357 4.48461 20.2993 4.35345L23.4359 1.84042L27.1956 3.26129C27.3919 3.33541 27.6083 3.33541 27.8045 3.26129L31.5641 1.84042L34.7007 4.35345C34.8643 4.48472 35.0704 4.55153 35.2797 4.54165L39.2944 4.35216L41.501 7.71135C41.616 7.88655 41.7912 8.01396 41.9936 8.06928L45.8704 9.12964L46.9307 13.0064C46.986 13.2087 47.1133 13.3838 47.2886 13.499L50.6478 15.7056L50.4583 19.7203C50.4485 19.9298 50.5154 20.1357 50.6465 20.2993L53.1596 23.4359L51.7387 27.1955C51.6647 27.3918 51.6647 27.6082 51.7388 27.8044Z" fill="#5DAB00"/>
<path d="M43.6809 12.6297C43.4666 12.3963 43.2443 12.1643 43.0199 11.94C42.7955 11.7157 42.5636 11.4934 42.3303 11.2791C41.98 10.9574 41.4353 10.9806 41.1135 11.331C40.7919 11.6813 40.8151 12.2262 41.1655 12.5478C41.3807 12.7455 41.5949 12.9506 41.802 13.1578C42.009 13.3648 42.2143 13.5791 42.412 13.7943C42.5819 13.9793 42.8139 14.0731 43.0467 14.0731C43.2548 14.0731 43.4635 13.9981 43.6288 13.8463C43.9792 13.5248 44.0025 12.98 43.6809 12.6297Z" fill="#5DAB00"/>
<path d="M39.2734 8.92907C35.1204 6.28327 30.1204 5.10743 25.1948 5.61736C20.197 6.13513 15.4844 8.38047 11.9248 11.9399C8.00749 15.8572 5.72671 21.0612 5.50262 26.5931C5.27994 32.0924 7.10138 37.4317 10.6316 41.6272C10.8019 41.8296 11.0455 41.9339 11.2911 41.9339C11.4868 41.9339 11.6836 41.8675 11.845 41.7317C12.2089 41.4255 12.2557 40.8822 11.9495 40.5184C8.69671 36.6524 7.01835 31.7318 7.22352 26.6629C7.42999 21.5645 9.53202 16.7683 13.1426 13.1578C16.4232 9.87707 20.7665 7.80759 25.3721 7.33052C29.9134 6.86002 34.5214 7.9438 38.3478 10.3816C38.7491 10.6372 39.2812 10.5192 39.5368 10.1181C39.7924 9.7169 39.6744 9.18463 39.2734 8.92907Z" fill="#5DAB00"/>
<path d="M46.0322 15.6879C45.7766 15.2866 45.244 15.1687 44.8431 15.4242C44.4419 15.6798 44.3241 16.2122 44.5796 16.6132C47.0174 20.4398 48.101 25.048 47.6307 29.5889C47.1536 34.1945 45.0842 38.5377 41.8035 41.8185C38.1929 45.429 33.3968 47.5311 28.2984 47.7376C23.2304 47.9436 18.3088 46.2645 14.4429 43.0118C14.0791 42.7055 13.5359 42.7524 13.2296 43.1163C12.9233 43.4801 12.9702 44.0234 13.3341 44.3296C17.3003 47.6667 22.2879 49.477 27.4672 49.4769C27.7668 49.4769 28.0676 49.4707 28.3684 49.4586C33.9003 49.2346 39.1041 46.9538 43.0216 43.0365C46.5811 39.477 48.8265 34.7643 49.3441 29.7665C49.8541 24.8405 48.678 19.8407 46.0322 15.6879Z" fill="#5DAB00"/>
</svg>
