<svg width="55" height="54" viewBox="0 0 55 54" fill="none" xmlns="http://www.w3.org/2000/svg">
<path d="M52.4149 7.11875H40.2809C37.6239 2.84873 32.8888 0 27.5002 0C22.1112 0 17.376 2.84894 14.719 7.11918C14.7156 7.11918 14.7123 7.11865 14.709 7.11865H2.58533C1.15973 7.11875 0 8.27848 0 9.70397V41.7371C0 43.1627 1.15973 44.3223 2.58533 44.3223H21.3557L21.3558 48.05H15.0429C14.5979 48.05 14.2372 48.4106 14.2372 48.8557V51.6093H13.2633C12.8184 51.6093 12.4576 51.9699 12.4576 52.415C12.4576 52.86 12.8184 53.2206 13.2633 53.2206H41.7372C42.1823 53.2206 42.5429 52.86 42.5429 52.415C42.5429 51.9699 42.1823 51.6093 41.7372 51.6093H40.7634V48.8557C40.7634 48.4106 40.4027 48.05 39.9577 48.05H33.6446V44.3223H52.4148C53.8404 44.3223 55 43.1626 55 41.7371V9.70397C55.0001 8.27848 53.8404 7.11875 52.4149 7.11875ZM40.9068 14.2371H35.4135C35.3613 12.2691 35.1183 10.4125 34.7184 8.72998H39.3527C40.2401 10.3898 40.7889 12.2562 40.9068 14.2371ZM34.7183 21.3555C35.1182 19.673 35.3611 17.8164 35.4134 15.8484H40.9067C40.7889 17.8294 40.2401 19.6958 39.3526 21.3555H34.7183ZM38.338 22.9668C36.7142 25.1817 34.4295 26.8829 31.7762 27.7762C32.7924 26.5607 33.6456 24.9163 34.2708 22.9668H38.338ZM38.338 7.11875H34.2708C33.6456 5.16926 32.7924 3.52484 31.7762 2.30936C34.4294 3.20268 36.7142 4.90392 38.338 7.11875ZM28.3058 1.72606C30.0246 2.21612 31.5508 4.24543 32.5581 7.11875H28.3058V1.72606ZM28.3058 8.73008H33.0452C33.475 10.3983 33.7427 12.2685 33.8006 14.2371H28.3058V8.73008ZM28.3058 15.8484H33.8006C33.7427 17.8171 33.475 19.6872 33.0452 21.3555H28.3058V15.8484ZM28.3058 22.9668H32.5581C31.5508 25.8402 30.0246 27.8695 28.3058 28.3595V22.9668ZM40.476 22.6445C40.5153 22.5923 40.549 22.5356 40.5749 22.4746C41.7015 20.5004 42.394 18.2481 42.5213 15.8482H50.7194V32.9228H4.28077V15.8483H12.4791C12.6064 18.2482 13.2989 20.5004 14.4254 22.4746C14.4513 22.5358 14.4851 22.5924 14.5244 22.6447C17.1405 27.0929 21.9771 30.0855 27.5002 30.0855C33.0233 30.0855 37.8599 27.0928 40.476 22.6445ZM42.0958 11.3994H50.7193V14.237H42.5212C42.4696 13.2639 42.3245 12.3153 42.0958 11.3994ZM4.28077 14.237V11.3994H12.9045C12.6758 12.3153 12.5307 13.2639 12.4791 14.237H4.28077ZM26.6945 15.8484V21.3555H21.9551C21.5253 19.6872 21.2576 17.8171 21.1997 15.8484H26.6945ZM21.1997 14.2372C21.2576 12.2685 21.5253 10.3983 21.9551 8.73008H26.6945V14.2372H21.1997ZM26.6945 22.9668V28.3595C24.9756 27.8695 23.4495 25.8402 22.4422 22.9668H26.6945ZM23.2241 27.7762C20.5709 26.8829 18.2861 25.1817 16.6623 22.9668H20.7296C21.3548 24.9164 22.2079 26.5607 23.2241 27.7762ZM15.6477 21.3555C14.7602 19.6958 14.2114 17.8294 14.0937 15.8484H19.5869C19.6391 17.8164 19.8821 19.673 20.282 21.3555H15.6477ZM26.6945 1.72606V7.11875H22.4422C23.4495 4.24543 24.9756 2.21612 26.6945 1.72606ZM23.2241 2.30936C22.2079 3.52484 21.3548 5.16915 20.7296 7.11875H16.6623C18.2861 4.90392 20.5709 3.20268 23.2241 2.30936ZM15.6476 8.72998H20.2819C19.8821 10.4125 19.6391 12.2692 19.5869 14.2371H14.0936C14.2114 12.2562 14.7601 10.3896 15.6476 8.72998ZM1.61133 9.70397C1.61133 9.16697 2.04822 8.73008 2.58533 8.73008H13.8481C13.6875 9.07598 13.5396 9.42876 13.4052 9.78819H3.4751C3.03016 9.78819 2.66944 10.1488 2.66944 10.5939V33.7287C2.66944 34.1738 3.03016 34.5344 3.4751 34.5344H51.525C51.9701 34.5344 52.3307 34.1738 52.3307 33.7287V10.5937C52.3307 10.1487 51.9701 9.78808 51.525 9.78808H41.5951C41.4607 9.42865 41.3127 9.07588 41.1522 8.72998H52.4148C52.9518 8.72998 53.3887 9.16686 53.3887 9.70386V35.5924H1.61133V9.70397ZM39.1518 49.6614V51.6093H15.8485V49.6614H22.1595C22.1602 49.6614 22.1609 49.6615 22.1615 49.6615H32.8389C32.8397 49.6615 32.8403 49.6614 32.841 49.6614H39.1518ZM22.9671 44.3224H32.0333V48.0501H22.9672L22.9671 44.3224ZM53.3888 41.7372C53.3888 42.2741 52.9519 42.7111 52.4149 42.7111H32.8389H22.1613H2.58533C2.04822 42.7111 1.61133 42.2742 1.61133 41.7372V37.2039H53.3888V41.7372Z" fill="#FF6058"/>
<path d="M27.4999 42.0979C28.6802 42.0979 29.6404 41.1376 29.6404 39.9572C29.6404 38.7769 28.6802 37.8167 27.4999 37.8167C26.3196 37.8167 25.3594 38.777 25.3594 39.9572C25.3594 41.1375 26.3196 42.0979 27.4999 42.0979ZM27.4999 39.4281C27.7916 39.4281 28.029 39.6655 28.029 39.9572C28.0291 40.2491 27.7917 40.4865 27.4999 40.4865C27.2081 40.4865 26.9707 40.2491 26.9707 39.9572C26.9707 39.6655 27.2081 39.4281 27.4999 39.4281Z" fill="#FF6058"/>
<path d="M7.92517 12.0126H6.14551C5.70057 12.0126 5.33984 12.3732 5.33984 12.8182C5.33984 13.2633 5.70057 13.6239 6.14551 13.6239H7.92517C8.37012 13.6239 8.73084 13.2633 8.73084 12.8182C8.73084 12.3732 8.37012 12.0126 7.92517 12.0126Z" fill="#FF6058"/>
</svg>
