<svg width="60" height="60" viewBox="0 0 60 60" fill="none" xmlns="http://www.w3.org/2000/svg">
<path d="M30 0C26.6862 0 24 2.68625 24 6C24 9.31375 26.6862 12 30 12C33.3124 11.9967 35.9967 9.31238 36 6C36 2.68625 33.3138 0 30 0ZM30 10C27.7909 10 26 8.20913 26 6C26 3.79087 27.7909 2 30 2C32.2091 2 34 3.79087 34 6C34 8.20913 32.2091 10 30 10Z" fill="#63A5C0"/>
<path d="M34 13H33.764L33.553 13.105C31.3154 14.2191 28.6846 14.2191 26.447 13.105L26.236 13H26C23.24 13.0032 21.0033 15.24 21 18V24C21 25.6569 22.3431 27 24 27H36C37.6569 27 39 25.6569 39 24V18C38.9967 15.24 36.76 13.0032 34 13ZM37 24C37 24.5522 36.5522 25 36 25H24C23.4478 25 23 24.5522 23 24V18C23.0003 16.426 24.2169 15.1198 25.787 15.008C28.4589 16.248 31.5413 16.248 34.213 15.008C35.783 15.1198 36.9998 16.426 37 18V24Z" fill="#63A5C0"/>
<path d="M51 33C47.6862 33 45 35.6862 45 39C45 42.3138 47.6862 45 51 45C54.3138 45 57 42.3138 57 39C56.9967 35.6876 54.3124 33.0033 51 33ZM51 43C48.7909 43 47 41.2091 47 39C47 36.7909 48.7909 35 51 35C53.2091 35 55 36.7909 55 39C55 41.2091 53.2091 43 51 43Z" fill="#63A5C0"/>
<path d="M55 46H54.764L54.553 46.1C52.3154 47.214 49.6846 47.214 47.447 46.1L47.236 46H47C44.24 46.0033 42.0033 48.24 42 51V57C42 58.6569 43.3431 60 45 60H57C58.6569 60 60 58.6569 60 57V51C59.9967 48.24 57.76 46.0033 55 46ZM58 57C58 57.5522 57.5522 58 57 58H45C44.4478 58 44 57.5522 44 57V51C44.0003 49.426 45.2169 48.1197 46.787 48.008C49.4589 49.248 52.5411 49.248 55.213 48.008C56.7831 48.1197 57.9998 49.426 58 51V57Z" fill="#63A5C0"/>
<path d="M9 33C5.68625 33 3 35.6862 3 39C3 42.3138 5.68625 45 9 45C12.3138 45 15 42.3138 15 39C14.9967 35.6876 12.3124 33.0033 9 33ZM9 43C6.79087 43 5 41.2091 5 39C5 36.7909 6.79087 35 9 35C11.2091 35 13 36.7909 13 39C13 41.2091 11.2091 43 9 43Z" fill="#63A5C0"/>
<path d="M13 46H12.764L12.553 46.1C10.3154 47.214 7.68462 47.214 5.447 46.1L5.236 46H5C2.24 46.0033 0.00325 48.24 0 51V57C0 58.6569 1.34312 60 3 60H15C16.6569 60 18 58.6569 18 57V51C17.9967 48.24 15.76 46.0033 13 46ZM16 57C16 57.5522 15.5522 58 15 58H3C2.44775 58 2 57.5522 2 57V51C2.00025 49.426 3.21688 48.1197 4.787 48.008C7.45888 49.248 10.5411 49.248 13.213 48.008C14.7831 48.1197 15.9998 49.426 16 51V57Z" fill="#63A5C0"/>
<path d="M39.9218 50.7845C39.9213 50.7834 39.9208 50.7823 39.9203 50.781C39.7038 50.2729 39.1164 50.0365 38.6084 50.253C34.0928 52.1455 29.0778 52.4908 24.3454 51.235L25.2814 50.96C25.8117 50.8048 26.1157 50.2493 25.9604 49.719C25.8052 49.1888 25.2497 48.8848 24.7194 49.04L20.7194 50.213C20.7044 50.213 20.6934 50.23 20.6794 50.235C20.5868 50.2695 20.4998 50.3178 20.4214 50.378C20.3867 50.3968 20.3533 50.4178 20.3214 50.441C20.2159 50.5351 20.1323 50.6511 20.0764 50.781C20.0222 50.9118 19.9963 51.0525 20.0004 51.194C20.0248 51.3294 20.0582 51.463 20.1004 51.594C20.1064 51.608 20.1004 51.624 20.1114 51.638L22.1114 55.465C22.3672 55.9549 22.9716 56.1448 23.4614 55.889C23.9513 55.6333 24.1412 55.0289 23.8854 54.539L23.0714 52.983C28.4482 54.5993 34.2208 54.2851 39.3904 52.095C39.8989 51.8799 40.1369 51.2931 39.9218 50.7845Z" fill="#63A5C0"/>
<path d="M56.7073 26.293C56.3168 25.9026 55.6838 25.9026 55.2933 26.293L53.8783 27.708C53.0503 18.9492 47.4894 11.3485 39.3923 7.90799C38.8842 7.69149 38.2968 7.92787 38.0803 8.43599C37.8638 8.94412 38.1002 9.53149 38.6083 9.74799C45.872 12.8351 50.9213 19.5816 51.8353 27.421L50.7073 26.293C50.31 25.9092 49.677 25.9202 49.2933 26.3175C48.919 26.705 48.919 27.3194 49.2933 27.707L52.2933 30.707C52.6833 31.098 53.3165 31.0989 53.7075 30.7087C53.7082 30.7081 53.7088 30.7075 53.7093 30.707L56.7093 27.707C57.0992 27.316 57.0983 26.683 56.7073 26.293Z" fill="#63A5C0"/>
<path d="M21.971 8.65901C21.9678 8.60063 21.9591 8.54276 21.945 8.48601C21.945 8.47701 21.934 8.47101 21.93 8.46101C21.926 8.45101 21.93 8.44401 21.93 8.43601C21.9028 8.38738 21.8713 8.34113 21.836 8.29801C21.8036 8.23938 21.7654 8.18413 21.722 8.13301C21.6629 8.08063 21.5974 8.03601 21.527 8.00001C21.4919 7.97013 21.4544 7.94301 21.415 7.91901L17.415 6.09201C16.9041 5.88226 16.3199 6.12638 16.1101 6.63726C15.9118 7.12038 16.1186 7.67488 16.585 7.91001L18.656 8.85701C10.8594 13.0296 5.99438 21.157 6 30C6 30.5523 6.44775 31 7 31C7.55225 31 8 30.5523 8 30C7.995 22.2134 12.1126 15.006 18.823 11.056L18.1 12.567C17.8616 13.0641 18.0705 13.6604 18.567 13.9C18.7019 13.9659 18.8499 14.0001 19 14C19.384 13.9995 19.7338 13.7791 19.9 13.433L21.9 9.26001C21.9 9.25001 21.9 9.23901 21.908 9.22901C21.934 9.16063 21.9521 9.08951 21.962 9.01701C21.9791 8.96313 21.9919 8.90801 22 8.85201C21.9966 8.78688 21.987 8.72226 21.971 8.65901Z" fill="#63A5C0"/>
</svg>
