<svg width="60" height="60" viewBox="0 0 60 60" fill="none" xmlns="http://www.w3.org/2000/svg">
<path d="M57.1697 29.0625C56.6858 14.7929 45.2071 3.31418 30.9375 2.83031V0H29.0625V2.83031C14.7929 3.31418 3.31418 14.7929 2.83031 29.0625H0V30.9375H2.83031C3.31418 45.2071 14.7929 56.6858 29.0625 57.1697V60H30.9375V57.1686C45.1996 56.6688 56.6688 45.1996 57.1686 30.9375H60V29.0625H57.1697ZM30 55.3125C16.0202 55.3125 4.6875 43.9798 4.6875 30C4.6875 16.0202 16.0202 4.6875 30 4.6875C43.9733 4.70297 55.297 16.0267 55.3125 30C55.3125 43.9798 43.9798 55.3125 30 55.3125Z" fill="#DF606F"/>
<path d="M35.8911 11.2103C34.2037 9.9361 32.1216 9.28302 29.9988 9.37501C27.8623 9.28243 25.7669 9.94384 24.0739 11.2342L24.07 11.2219C15.8673 13.8054 10.2906 21.4144 10.2969 30.0144C10.3048 40.8875 19.1257 49.6955 29.9988 49.6875C38.6298 49.6947 46.259 44.0794 48.8177 35.8364C52.037 25.4653 46.2505 14.4495 35.8911 11.2103ZM25.3113 12.6244C26.686 11.6755 28.3293 11.1936 29.9988 11.25C31.6681 11.1934 33.3115 11.6748 34.6863 12.6234V16.7397C34.2175 16.6164 33.7488 16.3819 33.7488 15.9375C33.7488 15.4198 33.329 15 32.8113 15H27.1863C26.6686 15 26.2488 15.4198 26.2488 15.9375C26.2488 16.3819 25.78 16.6163 25.3113 16.7397V12.6244ZM25.3113 18.6628C26.4385 18.5548 27.4337 17.8813 27.9532 16.875H32.0444C32.5639 17.8813 33.5591 18.5548 34.6863 18.6628V19.6875C34.6863 22.2825 33.4582 25.3125 29.9988 25.3125C26.5394 25.3125 25.3113 22.2825 25.3113 19.6875V18.6628ZM32.6577 27.8905L29.9988 30.5494L27.3391 27.8897L27.6964 26.7808C28.4009 27.0455 29.173 27.1875 29.9988 27.1875C30.8241 27.1875 31.5957 27.0457 32.2998 26.7812L32.6577 27.8905ZM18.8472 30.5184L17.9097 32.3934C17.8448 32.5236 17.8112 32.6671 17.8113 32.8125V42.9886C15.6525 40.9676 13.9671 38.3811 13.0128 35.3604C10.1781 26.3867 14.8165 16.8408 23.4363 13.4353V17.8125V19.6875C23.4363 22.3451 24.415 24.5191 26.0359 25.8301L25.5344 27.3844L19.316 30.0778C19.1127 30.1648 18.9466 30.3209 18.8472 30.5184ZM40.3113 44.5224C39.4368 45.1429 38.4978 45.6908 37.4988 46.153V41.25H35.6238V46.875H35.682C35.5762 46.9106 35.4704 46.9463 35.3635 46.9801C31.616 48.1638 27.7691 48.0434 24.3107 46.875H24.3738V41.25H22.4988V46.1514C21.5147 45.6942 20.5731 45.1478 19.6863 44.5192V33.0338L20.3707 31.6613L26.0156 29.2174L29.0613 32.2631V37.5H30.9363V32.2631L33.9816 29.2178L39.626 31.6613L40.3113 33.0338V44.5224ZM42.1863 42.9899V32.8125C42.1879 32.6674 42.1558 32.524 42.0925 32.3934L41.155 30.5184C41.0557 30.3209 40.8896 30.1648 40.6863 30.0778L34.4613 27.3844L33.9602 25.8313C35.582 24.5204 36.5613 22.3459 36.5613 19.6875V17.8125V13.4378C41.519 15.4024 45.3627 19.4993 46.9832 24.6294C49.1148 31.3772 47.021 38.4489 42.1863 42.9899Z" fill="#DF606F"/>
<path d="M7.50082 3.74996V6.17398L1.60125 0.274414L0.275391 1.60027L6.17508 7.49996H3.75082V9.37496H8.43832C8.95605 9.37496 9.37582 8.95519 9.37582 8.43746V3.74996H7.50082Z" fill="#DF606F"/>
<path d="M59.7237 1.59845L58.3977 0.272705L52.5 6.1704V3.74989H50.625V8.43739C50.625 8.95512 51.0448 9.37489 51.5625 9.37489H56.25V7.49989H53.8222L59.7237 1.59845Z" fill="#DF606F"/>
<path d="M8.43727 50.625H3.74977V52.5H6.16922L0.269531 58.3997L1.59539 59.7255L7.49977 53.8212V56.25H9.37477V51.5625C9.37477 51.0448 8.955 50.625 8.43727 50.625Z" fill="#DF606F"/>
<path d="M53.8259 52.5H56.25V50.625H51.5625C51.0448 50.625 50.625 51.0448 50.625 51.5625V56.25H52.5V53.8259L58.3977 59.7236L59.7236 58.3977L53.8259 52.5Z" fill="#DF606F"/>
</svg>
