<svg width="61" height="60" viewBox="0 0 61 60" fill="none" xmlns="http://www.w3.org/2000/svg">
<path d="M16.4967 16.2425C16.3896 16.2425 16.2289 16.189 16.1218 16.1354L7.65949 11.4758C7.44526 11.3687 7.28458 11.1545 7.23102 10.9402C7.17746 10.726 7.23102 10.4582 7.3917 10.2975C11.9442 4.72741 18.4784 1.08542 25.7623 0.0142459C25.9766 -0.0393128 26.2444 0.0678047 26.405 0.174922C26.5657 0.335598 26.6728 0.549833 26.6728 0.764068V10.2975C26.6728 10.6724 26.405 10.9938 26.0301 11.1009C22.7095 11.8507 19.6031 13.5646 16.9787 16.0283C16.8716 16.189 16.6574 16.2425 16.4967 16.2425ZM9.26625 10.5653L16.336 14.4751C18.8533 12.1721 21.8526 10.5653 25.0661 9.70837V1.72812C18.9068 2.85286 13.3367 5.95926 9.26625 10.5653Z" fill="#A665E7"/>
<path d="M38.5084 12.3863C38.4013 12.3863 38.2942 12.3863 38.187 12.3327C36.9552 11.7972 35.7769 11.4223 34.4915 11.1009C34.1166 10.9938 33.9023 10.6724 33.9023 10.3511V0.817626C33.9023 0.603391 34.0095 0.335597 34.1701 0.22848C34.3308 0.121363 34.5986 0.0142456 34.8128 0.0678043C38.5084 0.710509 41.829 1.83524 44.7212 3.38844C44.9354 3.49556 45.0426 3.7098 45.0961 3.92403C45.1497 4.13827 45.0961 4.40606 44.9354 4.56674L39.1511 12.1185C38.9904 12.2792 38.7762 12.3863 38.5084 12.3863ZM35.5091 9.70837C36.4196 9.97617 37.3301 10.244 38.2942 10.6189L43.1144 4.29894C40.865 3.17421 38.2942 2.31727 35.5091 1.72812V9.70837Z" fill="#A665E7"/>
<path d="M53.0248 49.3418C52.8106 49.3418 52.5428 49.2347 52.4357 49.074L46.1693 41.7365C45.9551 41.4687 45.9015 41.0402 46.1157 40.7724C48.3116 37.5589 49.4364 33.7562 49.4364 29.8465C49.4364 25.1333 47.8832 20.795 44.8839 17.3673C44.6161 17.0995 44.6161 16.671 44.8303 16.3497L50.6147 8.79788C50.7753 8.63721 50.9896 8.47653 51.2038 8.47653C51.418 8.47653 51.6858 8.53009 51.8465 8.69077C57.3631 14.368 60.4159 21.8662 60.4159 29.9C60.4159 36.9698 58.0593 43.5575 53.6139 48.9669C53.5068 49.2347 53.2926 49.3418 53.0248 49.3418C53.0784 49.3418 53.0248 49.3418 53.0248 49.3418ZM47.7761 41.1474L53.0248 47.253C56.8275 42.2721 58.8627 36.2735 58.8627 29.9536C58.8627 22.6696 56.1848 15.8141 51.3645 10.5118L46.5442 16.7781C49.4899 20.4201 51.0967 24.9726 51.0967 29.7929C51.0431 33.8634 49.9184 37.7731 47.7761 41.1474Z" fill="#A665E7"/>
<path d="M30.1536 60C13.5504 60 0 46.4497 0 29.8465C0 25.8295 0.85694 21.7591 2.51726 17.7957C2.62438 17.5815 2.78505 17.4208 2.99929 17.3673C3.21352 17.3137 3.42776 17.3137 3.64199 17.4208L11.89 21.9733C12.2114 22.1876 12.3721 22.5625 12.2649 22.9374C11.408 25.3475 11.0331 27.5434 11.0331 29.8465C11.0331 40.5046 19.7096 49.1276 30.3142 49.1276C33.7955 49.1276 37.0626 48.2707 40.0084 46.5568C40.3297 46.3425 40.7582 46.4497 41.026 46.7174L47.0781 53.6801C47.2388 53.8408 47.2923 54.1086 47.2923 54.3228C47.2388 54.537 47.1317 54.7513 46.971 54.8584C41.8829 58.2326 36.1521 60 30.1536 60ZM3.64199 19.2418C2.30302 22.7231 1.60676 26.3116 1.60676 29.8465C1.60676 45.5927 14.4073 58.3932 30.1536 58.3932C35.5094 58.3932 40.6511 56.8936 45.2036 54.055L40.2226 48.2706C37.1697 49.8774 33.8491 50.7343 30.3142 50.7343C18.7991 50.7343 9.42633 41.3616 9.42633 29.8465C9.42633 27.5434 9.80124 25.3475 10.5511 23.0445L3.64199 19.2418Z" fill="#A665E7"/>
<path d="M20.2443 13.2968C20.0836 13.2968 19.9765 13.2433 19.8158 13.1897L11.3535 7.99451C10.9786 7.78028 10.8715 7.24469 11.0858 6.86978C11.3 6.49487 11.8356 6.38775 12.2105 6.60199L20.6192 11.7972C20.9941 12.0114 21.1012 12.547 20.887 12.9219C20.7799 13.1897 20.5121 13.2968 20.2443 13.2968Z" fill="#A665E7"/>
<path d="M24.3689 10.9938C24.2082 10.9938 24.0475 10.9402 23.9404 10.8866L14.9961 5.15586C14.6212 4.94162 14.5141 4.40604 14.7283 4.03113C14.9426 3.65622 15.4782 3.5491 15.8531 3.76333L24.7974 9.49411C25.1723 9.70835 25.2794 10.2439 25.0652 10.6188C24.9045 10.8331 24.6367 10.9938 24.3689 10.9938Z" fill="#A665E7"/>
</svg>
