<svg width="25" height="25" viewBox="0 0 25 25" fill="none" xmlns="http://www.w3.org/2000/svg">
<path d="M12.5 4.73214C12.2768 4.73214 12.0536 4.55357 12.0536 4.33036V2.76786C12.0536 2.54464 12.2321 2.36607 12.4554 2.36607C12.6786 2.36607 12.8571 2.54464 12.8571 2.76786V4.33036C12.9464 4.55357 12.7232 4.73214 12.5 4.73214ZM4.33036 12.0536H2.76786C2.54464 12.0536 2.36607 12.2321 2.36607 12.4554C2.36607 12.6786 2.54464 12.8571 2.76786 12.8571H4.33036C4.55357 12.8571 4.73214 12.6786 4.73214 12.4554C4.73214 12.2321 4.55357 12.0536 4.33036 12.0536ZM22.2321 12.0536H20.6696C20.4464 12.0536 20.2679 12.2321 20.2679 12.4554C20.2679 12.6786 20.4464 12.8571 20.6696 12.8571H22.2321C22.4554 12.8571 22.6339 12.6786 22.6339 12.4554C22.6786 12.2321 22.5 12.0536 22.2321 12.0536ZM12.9464 22.2768V20.7143C12.9464 20.4911 12.7679 20.3125 12.5446 20.3125C12.3214 20.3125 12.1429 20.4911 12.1429 20.7143V22.2768C12.1429 22.5 12.3214 22.6786 12.5446 22.6786C12.7232 22.6786 12.9464 22.5 12.9464 22.2768ZM17.9018 7.58929C17.6339 7.32143 17.1875 7.32143 16.9643 7.58929L13.1696 11.3839C13.5714 11.6071 13.9286 11.9643 14.0625 12.4107L17.9464 8.52678C18.1696 8.25893 18.1696 7.8125 17.9018 7.58929ZM12.3214 11.6964C11.6071 11.6964 11.0268 12.2768 11.0268 12.9911C11.0268 13.7054 11.6071 14.2857 12.3214 14.2857C13.0357 14.2857 13.6161 13.7054 13.6161 12.9911C13.6161 12.2768 13.0357 11.6964 12.3214 11.6964ZM11.5179 11.3839L6.47321 6.38393C6.20536 6.11607 5.80357 6.11607 5.53571 6.38393C5.26786 6.65179 5.26786 7.05357 5.53571 7.32143L10.625 12.4107C10.7589 12.0089 11.0714 11.6071 11.5179 11.3839ZM21.3393 21.3393C23.7054 18.9732 25 15.8482 25 12.5C25 9.15179 23.7054 6.02679 21.3393 3.66071C18.9732 1.29464 15.8482 0 12.5 0C9.15179 0 6.02679 1.29464 3.66071 3.66071C1.29464 6.02679 0 9.15179 0 12.5C0 15.8482 1.29464 18.9732 3.66071 21.3393C6.02679 23.7054 9.15179 25 12.5 25C15.8482 25 18.9732 23.7054 21.3393 21.3393ZM23.2589 12.5C23.2589 18.4375 18.4375 23.2589 12.5 23.2589C6.5625 23.2589 1.74107 18.4375 1.74107 12.5C1.74107 6.5625 6.5625 1.74107 12.5 1.74107C18.4375 1.74107 23.2589 6.5625 23.2589 12.5Z" fill="#476AB2"/>
</svg>
