<svg width="54" height="42" viewBox="0 0 54 42" fill="none" xmlns="http://www.w3.org/2000/svg">
<path d="M10.8492 16.1933C4.76558 16.1933 0 18.6142 0 21.705V36.4883C0 39.579 4.76558 42 10.8492 42C16.9336 42 21.6998 39.579 21.6998 36.4883V21.7056C21.6998 18.6149 16.9336 16.1933 10.8492 16.1933ZM20.3954 36.4889C20.3954 38.5205 16.5599 40.6962 10.8492 40.6962C5.13994 40.6962 1.30439 38.5205 1.30439 36.4889V34.2199C3.12466 35.9333 6.67651 37.0726 10.8492 37.0726C15.0226 37.0726 18.5751 35.9333 20.3954 34.2199V36.4889ZM20.3954 31.5603C20.3954 33.5919 16.5599 35.7676 10.8492 35.7676C5.13994 35.7676 1.30439 33.5919 1.30439 31.5603V29.2913C3.12466 31.0046 6.67651 32.144 10.8492 32.144C15.0226 32.144 18.5751 31.0046 20.3954 29.2913V31.5603ZM20.3954 26.6323C20.3954 28.6639 16.5599 30.8396 10.8492 30.8396C5.13994 30.8396 1.30439 28.6639 1.30439 26.6323V24.364C3.12466 26.0773 6.67651 27.2167 10.8492 27.2167C15.0226 27.2167 18.5751 26.0773 20.3954 24.364V26.6323ZM10.8492 25.9129C5.13994 25.9129 1.30439 23.7372 1.30439 21.7056C1.30439 19.6734 5.13994 17.4983 10.8492 17.4983C16.5592 17.4983 20.3954 19.6734 20.3954 21.7056C20.3954 23.7372 16.5599 25.9129 10.8492 25.9129Z" fill="#5DAB00"/>
<path d="M11.5017 4.81189H27.468L26.1441 7.64763L27.3265 8.19938L29.4089 3.73512L26.5713 0L25.5323 0.789156L27.5978 3.5075H10.1973V14.6307H11.5017V4.81189Z" fill="#5DAB00"/>
<path d="M41.9626 35.6744H25.9969L27.3196 32.838L26.1378 32.2862L24.0547 36.7505L26.8937 40.4863L27.9326 39.6971L25.8665 36.9788H43.267V25.2028H41.9626V35.6744Z" fill="#5DAB00"/>
<path d="M48.2396 6.70717V1.37939H31.6621V17.9575H36.9905V23.2853H53.568V6.70717H48.2396ZM36.9905 16.6531H32.9665V2.68378H46.9352V6.70717H36.9905V16.6531ZM52.2636 21.9809H38.2949V8.01156H52.2636V21.9809Z" fill="#5DAB00"/>
<path d="M49.6357 10.6614H40.9941V11.9658H49.6357V10.6614Z" fill="#5DAB00"/>
<path d="M49.6357 13.2702H40.9941V14.5746H49.6357V13.2702Z" fill="#5DAB00"/>
<path d="M49.6357 15.879H40.9941V17.1834H49.6357V15.879Z" fill="#5DAB00"/>
<path d="M49.6357 18.4877H40.9941V19.7921H49.6357V18.4877Z" fill="#5DAB00"/>
<path d="M39.9505 4.15967H38.8496V5.26057H39.9505V4.15967Z" fill="#5DAB00"/>
<path d="M42.5599 4.15967H41.459V5.26057H42.5599V4.15967Z" fill="#5DAB00"/>
<path d="M45.1693 4.15967H44.0684V5.26057H45.1693V4.15967Z" fill="#5DAB00"/>
</svg>
