<svg width="109" height="30" viewBox="0 0 109 30" fill="none" xmlns="http://www.w3.org/2000/svg">
<path d="M0 15C0 6.71573 6.71573 0 15 0H94C102.284 0 109 6.71573 109 15V15C109 23.2843 102.284 30 94 30H15C6.71573 30 0 23.2843 0 15V15Z" fill="#B2BEE3"/>
<path d="M2 15C2 7.8203 7.8203 2 15 2H94C101.18 2 107 7.8203 107 15V15C107 22.1797 101.18 28 94 28H15C7.8203 28 2 22.1797 2 15V15Z" fill="#5671C1"/>
<path d="M32.6914 14.7886H36.373V19.6001C35.7764 19.7948 35.2135 19.9302 34.6846 20.0063C34.1598 20.0868 33.6224 20.127 33.0723 20.127C31.6715 20.127 30.6009 19.7165 29.8604 18.8955C29.124 18.0703 28.7559 16.8875 28.7559 15.3472C28.7559 13.8491 29.1833 12.6812 30.0381 11.8433C30.8971 11.0054 32.0863 10.5864 33.6055 10.5864C34.5576 10.5864 35.4759 10.7769 36.3604 11.1577L35.7065 12.7319C35.0295 12.3934 34.3249 12.2241 33.5928 12.2241C32.7422 12.2241 32.0609 12.5098 31.5488 13.0811C31.0368 13.6523 30.7808 14.4204 30.7808 15.3853C30.7808 16.3924 30.986 17.1626 31.3965 17.6958C31.8112 18.2248 32.4121 18.4893 33.1992 18.4893C33.6097 18.4893 34.0265 18.4469 34.4497 18.3623V16.4263H32.6914V14.7886Z" fill="white"/>
<path d="M44.9881 15.271C44.9881 16.7987 44.5522 17.9688 43.6805 18.7812C42.813 19.5938 41.5582 20 39.9163 20H37.2884V10.7197H40.202C41.7169 10.7197 42.8934 11.1196 43.7312 11.9194C44.5691 12.7192 44.9881 13.8364 44.9881 15.271ZM42.9441 15.3218C42.9441 13.3286 42.0639 12.332 40.3035 12.332H39.2562V18.375H40.1004C41.9962 18.375 42.9441 17.3573 42.9441 15.3218Z" fill="white"/>
<path d="M47.5792 15.0869H48.2267C48.8318 15.0869 49.2846 14.9684 49.5851 14.7314C49.8855 14.4902 50.0357 14.1411 50.0357 13.6841C50.0357 13.2228 49.9088 12.8822 49.6549 12.6621C49.4052 12.4421 49.0117 12.332 48.4742 12.332H47.5792V15.0869ZM52.0226 13.6143C52.0226 14.613 51.7094 15.3768 51.0831 15.9058C50.461 16.4347 49.5745 16.6992 48.4234 16.6992H47.5792V20H45.6114V10.7197H48.5758C49.7014 10.7197 50.5562 10.9631 51.1402 11.4497C51.7285 11.9321 52.0226 12.6536 52.0226 13.6143Z" fill="white"/>
<path d="M54.4423 14.8394H55.077C55.6991 14.8394 56.1583 14.7357 56.4545 14.5283C56.7507 14.321 56.8988 13.9951 56.8988 13.5508C56.8988 13.1107 56.7465 12.7975 56.4418 12.6113C56.1413 12.4251 55.6737 12.332 55.039 12.332H54.4423V14.8394ZM54.4423 16.439V20H52.4745V10.7197H55.1786C56.4397 10.7197 57.3728 10.9504 57.9779 11.4116C58.5831 11.8687 58.8856 12.5648 58.8856 13.5C58.8856 14.0459 58.7354 14.5326 58.435 14.96C58.1345 15.3831 57.7092 15.7153 57.1591 15.9565C58.5556 18.0428 59.4654 19.3906 59.8886 20H57.705L55.4896 16.439H54.4423Z" fill="white"/>
<path d="M64.7417 15.0361H65.7954C66.5021 15.0361 67.0142 14.9049 67.3315 14.6426C67.6489 14.3802 67.8076 13.9909 67.8076 13.4746C67.8076 12.9499 67.6362 12.5732 67.2935 12.3447C66.9507 12.1162 66.4344 12.002 65.7446 12.002H64.7417V15.0361ZM64.7417 16.293V20H63.2246V10.7197H65.8462C67.0438 10.7197 67.9303 10.944 68.5059 11.3926C69.0814 11.8411 69.3691 12.5182 69.3691 13.4238C69.3691 14.5791 68.7682 15.4022 67.5664 15.8931L70.188 20H68.4614L66.2397 16.293H64.7417Z" fill="white"/>
<path d="M73.7973 20.127C72.7055 20.127 71.8507 19.8096 71.2328 19.1748C70.6192 18.5358 70.3124 17.6577 70.3124 16.5405C70.3124 15.3937 70.598 14.4924 71.1693 13.8364C71.7406 13.1805 72.5256 12.8525 73.5243 12.8525C74.4511 12.8525 75.1832 13.134 75.7206 13.6968C76.258 14.2596 76.5268 15.034 76.5268 16.02V16.8262H71.8485C71.8697 17.5075 72.0538 18.0322 72.4008 18.4004C72.7478 18.7643 73.2366 18.9463 73.8671 18.9463C74.2818 18.9463 74.6669 18.9082 75.0224 18.832C75.3821 18.7516 75.7672 18.6204 76.1776 18.4385V19.6509C75.8137 19.8244 75.4455 19.9471 75.0731 20.019C74.7007 20.091 74.2755 20.127 73.7973 20.127ZM73.5243 13.9824C73.0504 13.9824 72.6695 14.1326 72.3817 14.4331C72.0982 14.7336 71.9289 15.1715 71.8739 15.7471H75.0604C75.052 15.1673 74.9123 14.7293 74.6415 14.4331C74.3707 14.1326 73.9983 13.9824 73.5243 13.9824Z" fill="white"/>
<path d="M81.9642 20L81.6658 19.0225H81.615C81.2765 19.4499 80.9358 19.7419 80.5931 19.8984C80.2503 20.0508 79.8102 20.127 79.2728 20.127C78.583 20.127 78.0434 19.9408 77.6541 19.5684C77.269 19.196 77.0765 18.6691 77.0765 17.9878C77.0765 17.2642 77.3452 16.7183 77.8826 16.3501C78.4201 15.9819 79.2389 15.7809 80.3392 15.7471L81.5516 15.709V15.3345C81.5516 14.8859 81.4458 14.5516 81.2342 14.3315C81.0268 14.1073 80.7031 13.9951 80.263 13.9951C79.9033 13.9951 79.5584 14.048 79.2283 14.1538C78.8982 14.2596 78.5809 14.3844 78.2762 14.5283L77.7937 13.4619C78.1746 13.263 78.5914 13.1128 79.0442 13.0112C79.497 12.9054 79.9244 12.8525 80.3265 12.8525C81.2194 12.8525 81.8922 13.0472 82.345 13.4365C82.8021 13.8258 83.0306 14.4373 83.0306 15.271V20H81.9642ZM79.7425 18.9844C80.2841 18.9844 80.7179 18.8341 81.0438 18.5337C81.3738 18.229 81.5389 17.8037 81.5389 17.2578V16.6484L80.6375 16.6865C79.935 16.7119 79.423 16.8304 79.1014 17.042C78.784 17.2493 78.6253 17.5688 78.6253 18.0005C78.6253 18.3136 78.7184 18.557 78.9046 18.7305C79.0908 18.8997 79.3701 18.9844 79.7425 18.9844Z" fill="white"/>
<path d="M86.8303 20.127C85.9543 20.127 85.2709 19.8096 84.78 19.1748C84.2891 18.54 84.0437 17.6493 84.0437 16.5024C84.0437 15.3514 84.2912 14.4564 84.7863 13.8174C85.2857 13.1742 85.9755 12.8525 86.8557 12.8525C87.7782 12.8525 88.4807 13.1932 88.9631 13.8745H89.0393C88.9673 13.3709 88.9313 12.9731 88.9313 12.6812V10.123H90.4294V20H89.2614L89.0012 19.0796H88.9313C88.4532 19.7778 87.7528 20.127 86.8303 20.127ZM87.2302 18.9209C87.8438 18.9209 88.2902 18.7495 88.5695 18.4067C88.8488 18.0597 88.9927 17.499 89.0012 16.7246V16.5151C89.0012 15.6307 88.8573 15.0023 88.5695 14.6299C88.2818 14.2575 87.8311 14.0713 87.2175 14.0713C86.6927 14.0713 86.2886 14.285 86.0051 14.7124C85.7215 15.1356 85.5798 15.7407 85.5798 16.5278C85.5798 17.3065 85.7173 17.901 85.9924 18.3115C86.2674 18.7178 86.68 18.9209 87.2302 18.9209Z" fill="white"/>
<path d="M90.8458 12.9795H92.4708L93.899 16.9595C94.1148 17.5265 94.2587 18.0597 94.3307 18.5591H94.3814C94.4195 18.3263 94.4894 18.0449 94.5909 17.7148C94.6925 17.3805 95.2299 15.8021 96.2032 12.9795H97.8155L94.8131 20.9331C94.2672 22.3931 93.3574 23.123 92.0836 23.123C91.7535 23.123 91.4319 23.0871 91.1187 23.0151V21.8345C91.343 21.8853 91.5991 21.9106 91.8868 21.9106C92.6062 21.9106 93.1119 21.4938 93.4039 20.6602L93.6642 20L90.8458 12.9795Z" fill="white"/>
<path fill-rule="evenodd" clip-rule="evenodd" d="M23.788 9.0715C19.4605 6.3095 15.5423 6.3095 11.2148 9.0715C10.3961 14.9481 11.7996 19.4731 17.4722 22C23.2032 19.4731 24.6067 14.9481 23.788 9.0715ZM15.6587 13.3005C14.5004 12.0002 13.0004 13 13.9998 14L17.0038 17.2388L21.5 12.0002C22.5 11 20.9219 10.4797 20.571 10.9498L17.0038 14.8871L15.6587 13.3005Z" fill="#FFC700"/>
</svg>
