<svg width="30" height="26" viewBox="0 0 30 26" fill="none" xmlns="http://www.w3.org/2000/svg">
<path fill-rule="evenodd" clip-rule="evenodd" d="M0.5 26H29.5009V24.2666H0.5V26ZM7.9296 8.74091C7.72217 8.94892 7.41392 9.05264 7.00542 9.05264C6.28028 9.05264 5.79089 8.53233 5.68515 7.87364L4.45762 8.15098C4.57896 8.78714 4.84417 9.41087 5.35552 9.82891C5.62275 10.0473 5.94371 10.1944 6.2849 10.2793L6.16212 11.2309H7.77446L7.65515 10.3073C8.01281 10.2363 8.35544 10.1013 8.64058 9.88697C9.55235 9.20113 9.75573 7.76819 9.25883 6.80414C9.09184 6.47971 8.85986 6.22374 8.56431 6.03653C8.26819 5.84933 7.81144 5.66819 7.19378 5.49312C6.57611 5.31804 6.18754 5.14962 6.02721 4.98812C5.84838 4.80756 5.78886 4.53657 5.87727 4.30285C6.03732 3.88077 6.58449 3.77215 7.00368 3.78573C7.23769 3.79324 7.47545 3.85911 7.65457 4.0024C7.80769 4.12518 7.90591 4.29563 7.96774 4.47851L9.25536 4.22341C9.14009 3.69935 8.87748 3.20908 8.39271 2.90256C8.16332 2.75754 7.90447 2.6622 7.63637 2.60038L7.77446 1.53001H6.16212L6.2979 2.58246C6.13439 2.61684 5.97376 2.66162 5.82122 2.72778C4.32964 3.37838 4.2395 5.5275 5.52741 6.41586C5.9596 6.71429 6.48222 6.84718 6.98519 6.99597C7.43039 7.1277 8.00269 7.26175 8.19019 7.72255C8.33319 8.07443 8.19423 8.47571 7.9296 8.74091ZM0.5 6.49039C0.5 2.90574 3.40574 0 6.99039 0C10.5748 0 13.4805 2.90574 13.4805 6.49039C13.4805 10.0748 10.5748 12.9805 6.99039 12.9805C3.40574 12.9805 0.5 10.0748 0.5 6.49039ZM8.78185 18.5383L15.666 13.1689L17.9463 15.4488L26.8458 2.57409L28.3735 3.39282L18.3713 18.3254L15.5239 15.478L8.63972 20.8475L6.18841 18.3965L1.59435 22.0571L0.514156 20.7016L6.31957 16.076L8.78185 18.5383Z" fill="#F94848"/>
<path fill-rule="evenodd" clip-rule="evenodd" d="M28.4247 1.72583L29.5819 6.35441L28.4177 6.64545L27.5749 3.27403L23.6895 4.56914L23.3101 3.43072L28.4247 1.72583Z" fill="#F94848"/>
</svg>
