
        <svg xmlns="http://www.w3.org/2000/svg" xmlns:xlink="http://www.w3.org/1999/xlink" version="1.1" width="3171.4285714285716" 
        height="1504.5944157413917" viewBox="0 0 3171.4285714285716 1504.5944157413917">
			<rect fill="#000000" width="3171.4285714285716" height="1504.5944157413917"/>
			<g transform="scale(8.571428571428571) translate(10, 10)">
				<defs id="SvgjsDefs2539"><linearGradient id="SvgjsLinearGradient2546"><stop id="SvgjsStop2547" stop-color="#8f5e25" offset="0"></stop><stop id="SvgjsStop2548" stop-color="#fbf4a1" offset="0.5"></stop><stop id="SvgjsStop2549" stop-color="#8f5e25" offset="1"></stop></linearGradient><linearGradient id="SvgjsLinearGradient2550"><stop id="SvgjsStop2551" stop-color="#8f5e25" offset="0"></stop><stop id="SvgjsStop2552" stop-color="#fbf4a1" offset="0.5"></stop><stop id="SvgjsStop2553" stop-color="#8f5e25" offset="1"></stop></linearGradient><linearGradient id="SvgjsLinearGradient2554"><stop id="SvgjsStop2555" stop-color="#8f5e25" offset="0"></stop><stop id="SvgjsStop2556" stop-color="#fbf4a1" offset="0.5"></stop><stop id="SvgjsStop2557" stop-color="#8f5e25" offset="1"></stop></linearGradient></defs><g id="SvgjsG2540" featureKey="rZF8Vg-0" transform="matrix(0.9943859436166661,0,0,0.9943859436166661,124.49373207674567,-7.418110642430127)" fill="url(#SvgjsLinearGradient2546)"><path xmlns="http://www.w3.org/2000/svg" d="M91.019,40.902c-1.945,0-3.521-1.576-3.521-3.52c0-0.555,0.14-1.073,0.369-1.54c-3.819-9.117-10.873-16.544-19.729-20.836  v11.815l-7.038,7.04l2.348,3.521h15.251v8.799h11.908c-0.072-0.502-0.117-1.011-0.2-1.509l3.456-0.645  c0.412,2.422,0.674,4.894,0.674,7.433c0,24.299-19.697,43.996-43.995,43.996c-19.457,0-35.921-12.646-41.727-30.156  c-1.325-0.504-2.271-1.777-2.271-3.279c0-1.944,1.576-3.521,3.52-3.521c1.943,0,3.52,1.576,3.52,3.521  c0,1.08-0.496,2.031-1.261,2.678c0.78,2.253,1.774,4.406,2.92,6.459l10.659-9.137v-12.32h10.56v-7.041h-7.04v-7.039H13.284  c-2.071,4.864-3.221,10.217-3.221,15.839c0,0.949,0.078,1.879,0.142,2.812l-3.487,0.649c-0.09-1.146-0.175-2.294-0.175-3.464  c0-24.298,19.698-43.997,43.998-43.997c18.04,0,33.493,10.88,40.282,26.417c0.065-0.003,0.127-0.019,0.195-0.019  c1.943,0,3.518,1.576,3.518,3.521C94.536,39.326,92.962,40.902,91.019,40.902z M75.179,40.902H64.618v10.559h10.561V40.902z   M91.019,51.461c0-0.594-0.058-1.173-0.085-1.759H78.698v5.279h-7.041l-0.018,9.419l-2.995,3.325L80.72,78.37  C87.105,71.215,91.019,61.807,91.019,51.461z M17.288,74.433c7.295,10.562,19.443,17.507,33.253,17.507  c10.711,0,20.424-4.19,27.663-10.984L66.394,70.397L62.86,74.34h-8.799v3.521H36.462v-5.28l-7.92-7.92l-0.88,0.881L17.288,74.433z   M50.541,74.34V63.781h-10.56V74.34H50.541z M29.422,53.22v6.802l7.04,7.039v-6.8h17.599v10.56H61.1l7.038-7.039V54.98H61.1V40.902  l-3.519-5.279H47.021v7.039h-7.04V53.22H29.422z M32.941,35.623v3.519h10.56v-10.56H39.98h-7.04L32.941,35.623L32.941,35.623z   M36.462,13.551c-9.193,3.417-16.828,10.037-21.474,18.552h14.434v-7.041l0,0h7.04V13.551z M64.618,13.529  c-4.384-1.633-9.12-2.544-14.077-2.544c-3.661,0-7.189,0.53-10.561,1.438v12.639h7.04v7.041h10.561l7.037-7.041V13.529z"></path></g><g id="SvgjsG2541" featureKey="6VBqdG-0" transform="matrix(1.6604991082027538,0,0,1.6604991082027538,-1.9925978213405582,98.26947500423131)" fill="url(#SvgjsLinearGradient2550)"><path d="M5.72 6 c4.04 0 7.08 3.1 7.08 6.96 c0 3.94 -3.04 7.04 -7.08 7.04 l-4.52 0 l0 -14 l4.52 0 z M5.7 17.92 c3.06 0 4.86 -2.22 4.86 -4.96 c0 -2.66 -1.8 -4.88 -4.86 -4.88 l-2.3 0 l0 9.84 l2.3 0 z M20.6 9.44 c0.22 0 0.42 0 0.62 0.04 l0 2.06 c-0.2 -0.04 -0.4 -0.04 -0.56 -0.04 c-1.96 0 -3.56 1.4 -3.8 3.6 l0 4.9 l-2.16 0 l0 -10.4 l2.16 0 l0 2.66 c0.44 -1.54 1.78 -2.82 3.74 -2.82 z M25.08 5.859999999999999 l0 1.88 l-2.16 0 l0 -1.88 l2.16 0 z M25.08 9.6 l0 10.4 l-2.16 0 l0 -10.4 l2.16 0 z M37.699999999999996 9.58 l-4.64 10.42 l-1.84 0 l-4.64 -10.42 l2.16 0 l3.4 7.72 l3.4 -7.72 l2.16 0 z M44.28 9.42 c2.36 0 5.56 1.8 5.06 6.16 l-8.28 0 c0.32 1.86 1.8 2.78 3.48 2.78 c1.38 0 2.12 -0.36 2.88 -0.96 l1.22 1.16 c-0.92 1.04 -2.24 1.64 -4.16 1.64 c-2.64 0 -5.58 -1.8 -5.58 -5.38 c0 -3.6 3.02 -5.4 5.38 -5.4 z M44.28 11.28 c-1.34 0 -2.84 0.9 -3.2 2.72 l6.36 0 c-0.24 -1.82 -1.82 -2.72 -3.16 -2.72 z M56.92 9.44 c2 0 3.96 1.3 3.96 4.54 l0 6.02 l-2.16 0 l0 -5.9 c0 -1.98 -0.94 -2.76 -2.28 -2.76 c-1.72 0 -2.84 1.6 -3.08 2.62 l0 6.04 l-2.16 0 l0 -10.4 l2.16 0 l0 2.2 c0.2 -0.64 1.4 -2.36 3.56 -2.36 z M73.5 6 c4.04 0 7.08 3.1 7.08 6.96 c0 3.94 -3.04 7.04 -7.08 7.04 l-4.52 0 l0 -14 l4.52 0 z M73.48 17.92 c3.06 0 4.86 -2.22 4.86 -4.96 c0 -2.66 -1.8 -4.88 -4.86 -4.88 l-2.3 0 l0 9.84 l2.3 0 z M87.25999999999999 9.42 c1.88 0 3.12 1.12 3.38 1.8 l0 -1.62 l2.16 0 l0 10.4 l-2.16 0 l0 -1.72 c-0.26 0.84 -1.5 1.92 -3.38 1.92 c-2.36 0 -5.18 -1.76 -5.18 -5.4 c0 -3.58 2.82 -5.38 5.18 -5.38 z M87.53999999999999 11.34 c-1.62 0 -3.36 1.16 -3.36 3.46 c0 2.32 1.74 3.48 3.36 3.48 s3.2 -1.14 3.2 -3.48 c0 -2.32 -1.58 -3.46 -3.2 -3.46 z M100.3 11.4 l-2.2 0 l0 5.82 c0 0.56 0.2 1 0.84 1 c0.54 0 0.92 -0.1 1.36 -0.28 l0 1.82 c-0.44 0.22 -1.02 0.36 -1.92 0.36 c-1.3 0 -2.44 -0.52 -2.44 -2.82 l0 -5.9 l-1.44 0 l0 -1.8 l1.44 0 l0 -2.44 l2.16 0 l0 2.44 l2.2 0 l0 1.8 z M106.87999999999998 9.42 c1.88 0 3.12 1.12 3.38 1.8 l0 -1.62 l2.16 0 l0 10.4 l-2.16 0 l0 -1.72 c-0.26 0.84 -1.5 1.92 -3.38 1.92 c-2.36 0 -5.18 -1.76 -5.18 -5.4 c0 -3.58 2.82 -5.38 5.18 -5.38 z M107.15999999999998 11.34 c-1.62 0 -3.36 1.16 -3.36 3.46 c0 2.32 1.74 3.48 3.36 3.48 s3.2 -1.14 3.2 -3.48 c0 -2.32 -1.58 -3.46 -3.2 -3.46 z M125.23999999999998 6 c4.04 0 7.08 3.1 7.08 6.96 c0 3.94 -3.04 7.04 -7.08 7.04 l-4.52 0 l0 -14 l4.52 0 z M125.21999999999998 17.92 c3.06 0 4.86 -2.22 4.86 -4.96 c0 -2.66 -1.8 -4.88 -4.86 -4.88 l-2.3 0 l0 9.84 l2.3 0 z M142.57999999999998 9.58 l2.16 0 l-6.34 14.22 l-2.16 0 l1.88 -4.14 l-4.5 -10.08 l2.16 0 l3.4 7.72 z M151.85999999999999 9.44 c2 0 3.96 1.3 3.96 4.54 l0 6.02 l-2.16 0 l0 -5.9 c0 -1.98 -0.94 -2.76 -2.28 -2.76 c-1.72 0 -2.84 1.6 -3.08 2.62 l0 6.04 l-2.16 0 l0 -10.4 l2.16 0 l0 2.2 c0.2 -0.64 1.4 -2.36 3.56 -2.36 z M162.6 9.42 c1.88 0 3.12 1.12 3.38 1.8 l0 -1.62 l2.16 0 l0 10.4 l-2.16 0 l0 -1.72 c-0.26 0.84 -1.5 1.92 -3.38 1.92 c-2.36 0 -5.18 -1.76 -5.18 -5.4 c0 -3.58 2.82 -5.38 5.18 -5.38 z M162.88 11.34 c-1.62 0 -3.36 1.16 -3.36 3.46 c0 2.32 1.74 3.48 3.36 3.48 s3.2 -1.14 3.2 -3.48 c0 -2.32 -1.58 -3.46 -3.2 -3.46 z M183.28 9.44 c2 0 3.98 1.28 3.98 4.66 l0 5.9 l-2.16 0 l0 -5.9 c0 -1.78 -0.9 -2.76 -2.42 -2.76 c-1.58 0 -2.54 1.32 -2.8 2.62 l0 6.04 l-2.16 0 l0 -5.9 c0 -1.78 -1.1 -2.76 -2.44 -2.76 c-1.66 0 -2.56 1.32 -2.78 2.62 l0 6.04 l-2.16 0 l0 -10.4 l2.16 0 l0 2.26 c0.08 -0.66 1.1 -2.42 3.28 -2.42 c1.42 0 2.98 0.78 3.7 2.5 c0.32 -0.9 1.56 -2.5 3.8 -2.5 z M191.42000000000002 5.859999999999999 l0 1.88 l-2.16 0 l0 -1.88 l2.16 0 z M191.42000000000002 9.6 l0 10.4 l-2.16 0 l0 -10.4 l2.16 0 z M198.60000000000005 9.42 c1.88 0 3.5 0.84 4.44 2.52 l-1.68 0.76 c-0.62 -0.84 -1.46 -1.36 -2.74 -1.36 c-1.54 0 -3.3 1.16 -3.3 3.48 c0 2.3 1.76 3.44 3.3 3.44 c1.28 0 2.12 -0.5 2.74 -1.34 l1.7 0.76 c-0.96 1.68 -2.56 2.5 -4.46 2.5 c-2.36 0 -5.38 -1.74 -5.38 -5.36 c0 -3.6 3.02 -5.4 5.38 -5.4 z M209.78000000000003 12.379999999999999 c-0.36 -0.8 -0.94 -1.22 -1.72 -1.22 c-0.8 0 -1.4 0.48 -1.4 1.14 c0 0.6 0.34 1.02 1.18 1.32 l1.14 0.4 c1.64 0.58 3 1.2 3 3.1 c0 2.02 -1.98 3.1 -3.9 3.1 c-1.84 0 -3.52 -1.06 -3.92 -2.84 l1.72 -0.52 c0.3 0.94 1.08 1.62 2.2 1.62 c0.92 0 1.76 -0.54 1.76 -1.36 c0 -0.66 -0.46 -1.06 -1.34 -1.38 l-1.18 -0.42 c-1.92 -0.68 -2.76 -1.72 -2.76 -3.04 c0 -1.74 1.56 -2.86 3.42 -2.86 c1.8 0 3.04 0.98 3.6 2.46 z"></path></g><g id="SvgjsG2542" featureKey="rMoqOW-0" transform="matrix(0.5182954050619304,0,0,0.5182954050619304,101.37804561278269,145.01461884249989)" fill="url(#SvgjsLinearGradient2554)"><path d="M6 6 c4 0 7.08 3.1 7.08 6.94 c0 3.96 -3.08 7.06 -7.08 7.06 l-4.8 0 l0 -14 l4.8 0 z M5.98 17.52 c2.84 0 4.44 -2.06 4.44 -4.58 c0 -2.4 -1.6 -4.46 -4.44 -4.46 l-2.16 0 l0 9.04 l2.16 0 z M40.14 20 l-1.16 -2.7 l-6.92 0 l-1.16 2.7 l-2.78 0 l6.24 -14 l2.34 0 l6.22 14 l-2.78 0 z M32.98 15.16 l5.08 0 l-2.54 -5.92 z M67.75999999999999 6 l0 2.42 l-3.6 0 l0 11.58 l-2.62 0 l0 -11.58 l-3.58 0 l0 -2.42 l9.8 0 z M94.82000000000001 20 l-1.16 -2.7 l-6.92 0 l-1.16 2.7 l-2.78 0 l6.24 -14 l2.34 0 l6.22 14 l-2.78 0 z M87.66000000000001 15.16 l5.08 0 l-2.54 -5.92 z M135.5 6 l0 14 l-2.62 0 l0 -14 l2.62 0 z M156.26000000000002 5.76 c2.38 0 3.96 1.52 4.66 2.9 l-1.94 1.14 c-0.74 -1.1 -1.54 -1.72 -2.72 -1.72 c-1.12 0 -1.92 0.66 -1.92 1.56 c0 0.86 0.52 1.36 1.72 1.8 l0.96 0.36 c2.98 1.06 4.28 2.36 4.28 4.36 c0 2.72 -2.58 4.14 -4.96 4.14 c-2.5 0 -4.46 -1.48 -5.1 -3.44 l2.02 -1.06 c0.5 1.12 1.44 2.12 3.08 2.12 c1.24 0 2.24 -0.6 2.24 -1.72 c0 -1.14 -0.72 -1.64 -2.28 -2.22 l-0.9 -0.32 c-2.08 -0.76 -3.66 -1.8 -3.66 -4.12 c0 -2.2 2.02 -3.78 4.52 -3.78 z M205.96000000000004 20 l-4.6 -6.1 l-1.78 2 l0 4.1 l-2.7 0 l0 -14 l2.7 0 l0 6.4 l5.56 -6.4 l3.24 0 l-5.38 6.06 l6 7.94 l-3.04 0 z M227.16000000000003 6 l0 14 l-2.62 0 l0 -14 l2.62 0 z M252.70000000000005 6 l2.62 0 l0 14 l-2 0 l-7.3 -9.22 l0 9.22 l-2.62 0 l0 -14 l2.02 0 l7.28 9.24 l0 -9.24 z M284.76000000000005 12.64 c0.54 4.66 -2.52 7.56 -6.26 7.56 c-3.92 0 -7.24 -2.96 -7.24 -7.2 s3.4 -7.2 7.24 -7.2 c1.82 0 3.46 0.6 4.68 1.66 l-1.58 1.8 c-0.8 -0.6 -1.86 -1 -2.94 -1 c-2.62 0 -4.68 1.98 -4.68 4.74 s2 4.74 4.52 4.74 c2 0 3.42 -0.8 3.84 -2.86 l-3.48 0 l0 -2.24 l5.9 0 z"></path></g>
			</g>
		</svg>
	