<svg width="55" height="49" viewBox="0 0 55 49" fill="none" xmlns="http://www.w3.org/2000/svg">
<path d="M48.2873 11.571V2.72158C48.2873 1.74705 47.7859 0.871026 46.9459 0.378282C46.1028 -0.116396 45.0886 -0.126601 44.2334 0.351749C36.0668 4.9189 27.1829 7.58607 17.8286 8.2797C17.7569 8.28496 9.30231 8.32191 9.30231 8.32191C7.1789 8.32191 5.42384 9.92497 5.18096 11.984H3.44556C1.5458 11.984 0 13.5296 0 15.4295V22.9993C0 24.8991 1.5458 26.4448 3.44556 26.4448H5.18074C5.35563 27.9267 6.3134 29.1715 7.62835 29.7533L13.8035 46.7956C14.1895 47.8564 15.2072 48.5692 16.3363 48.5692H22.5331C23.4116 48.5692 24.2368 48.1397 24.7408 47.4201C25.2447 46.7004 25.3662 45.778 25.0662 44.9537L19.7608 30.3189C28.4063 31.2171 36.6302 33.821 44.2333 38.0729C44.6528 38.3075 45.1105 38.4245 45.5675 38.4245C46.042 38.4244 46.516 38.2983 46.9456 38.0463C47.7855 37.5534 48.2872 36.6775 48.2872 35.7028V26.8534C52.0686 26.3635 55 23.1249 55 19.2122C55 15.2995 52.0686 12.0607 48.2873 11.571ZM5.15099 23.7874H3.44556C3.01082 23.7874 2.65729 23.4339 2.65729 22.9992V15.4295C2.65729 14.9951 3.01082 14.6413 3.44556 14.6413H5.15099V23.7874ZM8.69365 27.3187C8.17266 27.0852 7.80828 26.5626 7.80828 25.9558V12.4729H7.80839C7.80839 11.6493 8.47859 10.9792 9.3022 10.9792H16.5352V27.4496C16.5352 27.4496 9.23914 27.4468 9.20767 27.4448C8.94115 27.414 8.88508 27.4003 8.69365 27.3187ZM22.5684 45.8606C22.5727 45.8714 22.5755 45.8792 22.564 45.8954C22.5527 45.9116 22.5443 45.9116 22.533 45.9116H16.3362C16.3204 45.9116 16.3059 45.9016 16.3011 45.8885L10.5827 30.1067H16.8573L22.5684 45.8606ZM45.63 35.7029C45.63 35.7221 45.63 35.7375 45.6013 35.7543C45.5672 35.7741 45.5468 35.7628 45.5304 35.7537C37.3627 31.1861 28.5074 28.4442 19.1925 27.5939V10.8318C28.5082 9.98029 37.3635 7.23813 45.5301 2.67099C45.5469 2.66186 45.5676 2.65058 45.6013 2.67034C45.63 2.68721 45.63 2.70235 45.63 2.72158V35.7029ZM48.2873 24.1635V14.2608C50.5972 14.7243 52.3427 16.768 52.3427 19.2121C52.3427 21.6564 50.5971 23.7002 48.2873 24.1635Z" fill="#5071AF"/>
</svg>
