<svg width="64" height="60" viewBox="0 0 64 60" fill="none" xmlns="http://www.w3.org/2000/svg">
<path d="M59.6622 43.4106L63.75 42.6159V36.1589L59.6622 35.4636C59.2729 33.8742 58.5916 32.2848 57.7156 30.7947L60.0515 27.3179L55.5744 22.7483L52.1679 25.1325C50.8053 24.2384 49.2481 23.6424 47.5935 23.245L46.8149 19.0728H40.4885L39.7099 23.245C38.9313 23.4437 38.1527 23.7417 37.374 24.0397V15.596C37.374 15.1987 37.0821 14.8013 36.5954 14.8013H31.2424V11.2252H36.5954C36.9847 11.2252 37.374 10.9272 37.374 10.4305V0.794702C37.374 0.397351 37.0821 -4.73679e-08 36.5954 -4.73679e-08H0.778626C0.389313 -4.73679e-08 -1.16024e-08 0.298013 -1.16024e-08 0.794702V10.6291C-1.16024e-08 11.0265 0.291985 11.4238 0.778626 11.4238H6.13168V15H0.778626C0.389313 15 -1.16024e-08 15.298 -1.16024e-08 15.7947V25.6291C-1.16024e-08 26.0265 0.291985 26.4238 0.778626 26.4238H28.5172L27.3492 27.5166L29.6851 30.9934C28.8092 32.4834 28.2252 33.9735 27.8359 35.6623L23.8454 36.457V42.9139L27.9332 43.7086C28.3225 45.3974 29.0038 46.8874 29.8798 48.2781L27.5439 51.755L32.021 56.3245L35.4275 53.9404C36.8874 54.8344 38.3473 55.4305 40.0019 55.8278L40.7805 60H47.1069L47.8855 55.8278C49.5401 55.4305 51 54.7351 52.4599 53.8411L55.8664 56.2252L60.3435 51.6556L58.0076 48.1788C58.6889 46.6887 59.2729 45.0993 59.6622 43.4106ZM1.45992 1.5894H35.9141V9.93377H1.45992V1.5894ZM7.5916 11.4238H29.9771V15H7.5916V11.4238ZM1.45992 24.8344V16.4901H35.9141V24.9338C35.7195 25.0331 35.4275 25.2318 35.2328 25.3311L31.8263 22.947L29.9771 24.8344H1.45992ZM58.2996 51.457L55.5744 54.2384L52.3626 51.9536L51.9733 52.2517C50.5134 53.245 48.8588 53.9404 47.0095 54.3377L46.5229 54.4371L45.8416 58.4106H41.9485L41.1698 54.4371L40.6832 54.3377C38.9313 53.9404 37.2767 53.245 35.7195 52.2517L35.3302 51.9536L32.2156 54.3377L29.4905 51.5563L31.729 48.2781L31.437 47.8808C30.4637 46.3907 29.7824 44.702 29.3931 42.8146L29.2958 42.3179L25.4027 41.6225V37.649L29.2958 36.8543L29.3931 36.3576C29.7824 34.5695 30.4637 32.8808 31.437 31.2914L31.729 30.894L29.4905 27.6159L30.9504 26.0265L32.2156 24.7351L35.4275 27.0199L35.8168 26.7219C37.374 25.7285 39.0286 25.0331 40.7805 24.6358L41.2672 24.5364L41.9485 20.5629H45.8416L46.5229 24.5364L47.0095 24.6358C48.7615 25.0331 50.416 25.7285 51.9733 26.7219L52.3626 27.0199L55.5744 24.7351L58.2996 27.5166L56.0611 30.7947L56.3531 31.1921C57.3263 32.7815 58.0076 34.4702 58.3969 36.2583L58.4943 36.755L62.3874 37.4503V41.4238L58.4943 42.2185L58.3969 42.7152C58.0076 44.5033 57.3263 46.1921 56.3531 47.7815L56.0611 48.1788L58.2996 51.457Z" fill="#FF8933"/>
<path d="M43.8009 30.6953C39.0318 30.6953 35.1387 34.7682 35.1387 39.6357C35.1387 44.5033 39.0318 48.4768 43.8009 48.4768C46.1368 48.4768 48.278 47.4834 49.9326 45.7947C51.5871 44.1059 52.4631 41.9205 52.4631 39.5364C52.4631 34.6688 48.57 30.6953 43.8009 30.6953ZM48.9593 44.7019C47.5967 46.0927 45.7474 46.8874 43.8982 46.8874V47.6821V46.8874C39.9078 46.8874 36.6959 43.6092 36.6959 39.5364C36.6959 37.5496 37.4745 35.6622 38.8371 34.2715C40.1997 32.8807 42.049 32.086 43.9955 32.086C47.986 32.086 51.1978 35.3642 51.1978 39.437C51.1005 41.5231 50.3219 43.3112 48.9593 44.7019Z" fill="#FF8933"/>
<path d="M29.2959 4.96655H27.8359V6.45662H29.2959V4.96655Z" fill="#FF8933"/>
<path d="M32.7021 4.96655H31.2422V6.45662H32.7021V4.96655Z" fill="#FF8933"/>
<path d="M25.8896 4.96655H24.4297V6.45662H25.8896V4.96655Z" fill="#FF8933"/>
<path d="M22.4834 4.96655H21.0234V6.45662H22.4834V4.96655Z" fill="#FF8933"/>
<path d="M15.862 4.96655H5.64258V6.45662H15.862V4.96655Z" fill="#FF8933"/>
<path d="M29.2959 19.8679H27.8359V21.358H29.2959V19.8679Z" fill="#FF8933"/>
<path d="M25.8896 19.8679H24.4297V21.358H25.8896V19.8679Z" fill="#FF8933"/>
<path d="M32.7021 19.8679H31.2422V21.358H32.7021V19.8679Z" fill="#FF8933"/>
<path d="M22.4834 19.8679H21.0234V21.358H22.4834V19.8679Z" fill="#FF8933"/>
<path d="M15.862 19.8679H5.64258V21.358H15.862V19.8679Z" fill="#FF8933"/>
</svg>
